<svg id="svg" version="1.1" xmlns="http://www.w3.org/2000/svg" xmlns:xlink="http://www.w3.org/1999/xlink" width="400" height="479.8004987531172" viewBox="0, 0, 400,479.8004987531172"><g id="svgg"><path id="path0" d="M209.600 4.684 C 207.951 4.769,206.430 5.010,206.220 5.220 C 205.980 5.460,212.716 5.600,224.546 5.600 C 236.564 5.600,243.527 5.747,244.019 6.010 C 244.441 6.236,246.499 6.533,248.593 6.671 C 250.687 6.808,252.400 7.074,252.400 7.260 C 252.400 7.447,254.279 7.600,256.576 7.600 C 258.873 7.600,260.851 7.759,260.971 7.953 C 261.091 8.148,262.182 8.430,263.395 8.582 C 264.608 8.734,265.600 9.025,265.600 9.229 C 265.600 9.433,266.669 9.600,267.976 9.600 C 269.283 9.600,270.451 9.759,270.571 9.953 C 270.691 10.148,271.782 10.430,272.995 10.582 C 274.208 10.734,275.200 11.025,275.200 11.229 C 275.200 11.433,275.851 11.600,276.646 11.600 C 278.155 11.600,282.102 12.780,282.333 13.300 C 282.407 13.465,283.262 13.600,284.233 13.600 C 285.205 13.600,286.000 13.764,286.000 13.965 C 286.000 14.166,286.720 14.451,287.600 14.600 C 288.480 14.749,289.200 15.034,289.200 15.235 C 289.200 15.436,289.920 15.600,290.800 15.600 C 291.680 15.600,292.400 15.766,292.400 15.968 C 292.400 16.171,292.938 16.455,293.595 16.599 C 294.253 16.743,294.894 17.028,295.019 17.231 C 295.145 17.434,295.582 17.600,295.991 17.600 C 296.795 17.600,299.315 18.810,299.533 19.300 C 299.607 19.465,299.943 19.600,300.280 19.600 C 301.210 19.600,304.800 20.945,304.800 21.294 C 304.800 21.462,305.164 21.600,305.608 21.600 C 306.052 21.600,307.129 22.050,308.000 22.600 C 308.871 23.150,309.858 23.600,310.192 23.600 C 310.526 23.600,310.800 23.777,310.800 23.992 C 310.800 24.208,311.250 24.498,311.800 24.636 C 312.350 24.774,312.800 25.047,312.800 25.243 C 312.800 25.440,313.173 25.600,313.629 25.600 C 314.084 25.600,314.708 25.825,315.015 26.100 C 316.438 27.377,316.821 27.600,317.583 27.600 C 318.032 27.600,318.400 27.760,318.400 27.957 C 318.400 28.153,318.850 28.426,319.400 28.564 C 319.950 28.702,320.400 28.992,320.400 29.208 C 320.400 29.423,320.850 29.600,321.400 29.600 C 321.950 29.600,322.400 29.780,322.400 30.000 C 322.400 30.220,322.676 30.400,323.013 30.400 C 323.349 30.400,323.729 30.670,323.855 31.000 C 323.982 31.330,324.349 31.600,324.671 31.600 C 324.994 31.600,325.508 31.825,325.815 32.100 C 327.150 33.298,327.593 33.600,328.012 33.600 C 328.257 33.600,328.708 33.825,329.015 34.100 C 330.350 35.298,330.793 35.600,331.212 35.600 C 331.457 35.600,331.908 35.825,332.215 36.100 C 333.602 37.344,334.006 37.600,334.583 37.600 C 334.922 37.600,335.200 37.780,335.200 38.000 C 335.200 38.220,335.470 38.400,335.800 38.400 C 336.130 38.400,336.400 38.670,336.400 39.000 C 336.400 39.373,336.778 39.600,337.400 39.600 C 337.950 39.600,338.400 39.780,338.400 40.000 C 338.400 40.220,338.771 40.400,339.224 40.400 C 339.677 40.400,339.935 40.581,339.798 40.803 C 339.661 41.024,339.872 41.329,340.266 41.481 C 340.660 41.632,341.367 42.171,341.837 42.678 C 342.307 43.185,342.814 43.600,342.963 43.600 C 343.113 43.600,343.720 44.050,344.313 44.600 C 344.907 45.150,345.553 45.600,345.750 45.600 C 345.947 45.600,346.525 46.050,347.035 46.600 C 347.545 47.150,348.159 47.600,348.400 47.600 C 348.641 47.600,349.255 48.050,349.765 48.600 C 350.275 49.150,350.805 49.600,350.943 49.600 C 351.247 49.600,352.946 51.001,354.462 52.500 C 355.073 53.105,355.672 53.600,355.794 53.600 C 355.915 53.600,357.088 54.680,358.400 56.000 C 359.712 57.320,360.968 58.400,361.193 58.400 C 361.417 58.400,361.600 58.593,361.600 58.829 C 361.600 59.295,362.585 60.400,363.000 60.400 C 365.172 60.400,364.782 63.720,362.300 66.367 C 361.145 67.598,358.850 70.285,357.200 72.338 C 355.550 74.391,350.978 79.969,347.041 84.734 C 343.103 89.500,338.221 95.469,336.191 97.999 C 334.161 100.530,330.271 105.300,327.545 108.600 C 324.819 111.900,321.120 116.400,319.325 118.600 C 317.530 120.800,315.643 123.096,315.131 123.703 C 314.619 124.309,312.940 126.374,311.400 128.291 C 308.029 132.487,305.463 135.200,304.866 135.200 C 304.624 135.200,302.599 133.715,300.365 131.900 C 284.649 119.132,268.901 110.327,256.200 107.206 C 244.951 104.442,223.761 103.249,215.200 104.898 C 213.330 105.258,210.720 105.668,209.400 105.810 C 201.825 106.622,187.851 111.769,179.710 116.745 C 177.680 117.985,175.357 119.388,174.548 119.863 C 168.517 123.402,155.414 135.966,150.788 142.649 C 150.464 143.116,149.469 144.466,148.575 145.649 C 147.681 146.832,146.339 148.880,145.591 150.200 C 144.844 151.520,143.852 153.164,143.386 153.854 C 142.920 154.544,141.591 157.064,140.432 159.454 C 139.274 161.844,138.091 164.250,137.803 164.800 C 136.054 168.145,130.800 184.709,130.800 186.879 C 130.800 187.447,130.366 189.597,129.835 191.656 C 129.304 193.715,128.747 196.660,128.597 198.200 C 128.447 199.740,127.985 203.374,127.569 206.275 C 126.604 213.014,126.145 234.315,126.747 244.400 C 127.621 259.043,130.015 272.476,133.857 284.304 C 134.376 285.900,134.800 287.404,134.800 287.645 C 134.800 288.748,141.942 304.046,144.934 309.351 C 150.487 319.195,163.626 332.984,170.800 336.494 C 171.350 336.764,171.890 337.077,172.000 337.192 C 172.384 337.591,173.805 338.425,174.500 338.658 C 174.885 338.788,175.200 339.052,175.200 339.247 C 175.200 339.441,175.560 339.600,176.000 339.600 C 176.440 339.600,176.800 339.760,176.800 339.957 C 176.800 340.153,177.250 340.426,177.800 340.564 C 178.350 340.702,178.800 340.992,178.800 341.208 C 178.800 341.423,179.166 341.600,179.613 341.600 C 180.059 341.600,180.529 341.870,180.655 342.200 C 180.782 342.530,181.316 342.800,181.843 342.800 C 182.369 342.800,182.800 342.980,182.800 343.200 C 182.800 343.420,183.115 343.606,183.500 343.613 C 183.885 343.620,184.549 343.890,184.976 344.213 C 185.404 344.536,186.079 344.800,186.476 344.800 C 186.874 344.800,187.200 344.980,187.200 345.200 C 187.200 345.420,187.725 345.600,188.367 345.600 C 189.008 345.600,189.601 345.804,189.684 346.053 C 189.768 346.303,190.412 346.528,191.117 346.553 C 191.850 346.580,192.399 346.814,192.399 347.100 C 192.400 347.386,192.900 347.600,193.567 347.600 C 194.208 347.600,194.801 347.803,194.884 348.051 C 194.966 348.299,195.971 348.592,197.117 348.702 C 198.263 348.812,199.200 349.059,199.200 349.251 C 199.200 349.443,199.884 349.600,200.720 349.600 C 201.556 349.600,202.430 349.790,202.663 350.023 C 202.896 350.256,204.097 350.550,205.333 350.678 C 206.568 350.805,207.483 351.065,207.366 351.255 C 207.249 351.445,208.075 351.600,209.203 351.600 C 210.330 351.600,211.556 351.761,211.926 351.958 C 213.062 352.562,219.693 352.680,219.894 352.100 C 220.023 351.725,219.203 351.600,216.621 351.600 C 213.927 351.600,213.125 351.469,212.945 351.000 C 212.769 350.542,212.017 350.400,209.757 350.400 C 208.052 350.400,206.800 350.231,206.800 350.000 C 206.800 349.780,205.900 349.600,204.800 349.600 C 203.289 349.600,202.800 349.453,202.800 349.000 C 202.800 348.547,202.311 348.400,200.800 348.400 C 199.700 348.400,198.800 348.220,198.800 348.000 C 198.800 347.780,197.999 347.600,197.020 347.600 C 195.947 347.600,195.113 347.385,194.920 347.058 C 194.744 346.760,194.150 346.409,193.600 346.277 C 193.050 346.146,192.060 345.913,191.400 345.761 C 190.740 345.608,190.056 345.240,189.880 344.942 C 189.704 344.644,189.040 344.400,188.404 344.400 C 187.768 344.400,187.136 344.220,187.000 344.000 C 186.864 343.780,186.333 343.600,185.819 343.600 C 185.306 343.600,184.782 343.330,184.655 343.000 C 184.529 342.670,184.059 342.400,183.613 342.400 C 183.166 342.400,182.800 342.220,182.800 342.000 C 182.800 341.780,182.350 341.600,181.800 341.600 C 181.250 341.600,180.800 341.433,180.800 341.229 C 180.800 340.814,178.550 339.600,177.781 339.600 C 177.509 339.600,177.182 339.330,177.055 339.000 C 176.929 338.670,176.459 338.400,176.013 338.400 C 175.566 338.400,175.200 338.220,175.200 338.000 C 175.200 337.780,175.006 337.600,174.769 337.600 C 174.308 337.600,172.000 335.435,172.000 335.002 C 172.000 334.860,171.775 334.492,171.500 334.185 C 170.313 332.862,170.000 332.409,170.000 332.017 C 170.000 331.788,169.820 331.600,169.600 331.600 C 169.380 331.600,169.200 331.234,169.200 330.787 C 169.200 330.341,168.930 329.871,168.600 329.745 C 168.270 329.618,168.000 329.084,168.000 328.557 C 168.000 328.031,167.840 327.600,167.643 327.600 C 167.447 327.600,167.174 327.150,167.036 326.600 C 166.898 326.050,166.608 325.600,166.392 325.600 C 166.177 325.600,166.000 325.251,166.000 324.824 C 166.000 324.397,165.820 323.936,165.600 323.800 C 165.380 323.664,165.200 323.198,165.200 322.764 C 165.200 322.330,164.930 321.871,164.600 321.745 C 164.270 321.618,164.000 321.084,164.000 320.557 C 164.000 320.031,163.820 319.600,163.600 319.600 C 163.380 319.600,163.200 319.172,163.200 318.649 C 163.200 318.126,162.930 317.474,162.600 317.200 C 162.270 316.926,162.000 316.274,162.000 315.751 C 162.000 315.228,161.820 314.800,161.600 314.800 C 161.380 314.800,161.200 314.350,161.200 313.800 C 161.200 313.178,160.973 312.800,160.600 312.800 C 160.157 312.800,160.000 312.336,160.000 311.024 C 160.000 310.047,159.820 309.136,159.600 309.000 C 159.380 308.864,159.200 308.348,159.200 307.853 C 159.200 307.358,158.936 306.604,158.613 306.176 C 158.290 305.749,158.020 304.815,158.013 304.100 C 158.006 303.385,157.843 302.800,157.652 302.800 C 157.461 302.800,157.208 301.951,157.091 300.913 C 156.974 299.875,156.681 298.960,156.439 298.880 C 156.187 298.796,156.000 297.737,156.000 296.390 C 156.000 295.102,155.843 293.950,155.650 293.831 C 155.458 293.712,155.215 292.586,155.111 291.328 C 155.006 290.070,154.714 288.971,154.460 288.887 C 154.169 288.790,154.000 287.654,154.000 285.790 C 154.000 284.172,153.820 282.736,153.600 282.600 C 153.376 282.462,153.199 280.560,153.198 278.276 C 153.196 275.416,153.014 273.853,152.589 273.037 C 151.678 271.291,151.675 236.315,152.585 234.570 C 153.009 233.756,153.196 232.213,153.198 229.500 C 153.199 227.168,153.361 225.600,153.600 225.600 C 153.833 225.600,154.005 224.225,154.013 222.300 C 154.021 220.034,154.210 218.757,154.613 218.224 C 154.936 217.796,155.200 216.772,155.200 215.947 C 155.200 215.122,155.380 214.336,155.600 214.200 C 155.820 214.064,156.000 213.051,156.000 211.948 C 156.000 210.699,156.226 209.717,156.600 209.343 C 156.930 209.013,157.200 208.136,157.200 207.395 C 157.200 206.654,157.380 205.936,157.600 205.800 C 157.820 205.664,158.000 205.038,158.000 204.409 C 158.000 203.780,158.252 202.755,158.560 202.132 C 159.346 200.543,159.998 198.318,160.013 197.172 C 160.020 196.637,160.290 195.851,160.613 195.424 C 160.936 194.996,161.200 194.231,161.200 193.724 C 161.200 193.216,161.380 192.800,161.600 192.800 C 161.820 192.800,162.000 192.369,162.000 191.843 C 162.000 191.316,162.270 190.782,162.600 190.655 C 162.930 190.529,163.200 190.059,163.200 189.613 C 163.200 189.166,163.380 188.800,163.600 188.800 C 163.820 188.800,164.000 188.427,164.000 187.971 C 164.000 187.516,164.270 186.873,164.600 186.543 C 164.930 186.213,165.200 185.506,165.200 184.971 C 165.200 184.437,165.380 184.000,165.600 184.000 C 165.820 184.000,166.000 183.631,166.000 183.181 C 166.000 182.730,166.450 181.945,167.000 181.435 C 167.550 180.925,168.000 180.143,168.000 179.697 C 168.000 179.251,168.270 178.782,168.600 178.655 C 168.930 178.529,169.200 178.059,169.200 177.613 C 169.200 177.166,169.352 176.800,169.537 176.800 C 169.722 176.800,170.213 176.170,170.628 175.400 C 171.043 174.630,171.521 174.000,171.691 174.000 C 171.861 174.000,172.000 173.655,172.000 173.234 C 172.000 172.812,172.720 171.695,173.600 170.751 C 174.480 169.808,175.200 168.802,175.200 168.518 C 175.200 168.233,175.380 168.000,175.600 168.000 C 175.820 168.000,176.000 167.801,176.000 167.558 C 176.000 167.314,176.450 166.761,177.000 166.329 C 177.550 165.896,178.000 165.195,178.000 164.771 C 178.000 164.347,178.270 164.000,178.600 164.000 C 178.930 164.000,179.200 163.814,179.200 163.587 C 179.200 162.960,191.040 151.305,191.980 151.006 C 192.431 150.863,192.800 150.578,192.800 150.373 C 192.800 150.168,193.040 150.000,193.332 150.000 C 193.625 150.000,194.106 149.550,194.400 149.000 C 194.694 148.450,195.109 148.000,195.322 148.000 C 195.534 148.000,196.125 147.550,196.635 147.000 C 197.145 146.450,197.840 146.000,198.181 146.000 C 198.521 146.000,198.800 145.820,198.800 145.600 C 198.800 145.380,199.070 145.200,199.400 145.200 C 199.730 145.200,200.000 144.930,200.000 144.600 C 200.000 144.227,200.378 144.000,201.000 144.000 C 201.550 144.000,202.000 143.820,202.000 143.600 C 202.000 143.380,202.262 143.200,202.582 143.200 C 202.902 143.200,203.614 142.750,204.164 142.200 C 204.714 141.650,205.532 141.200,205.982 141.200 C 206.442 141.200,206.800 140.938,206.800 140.600 C 206.800 140.227,207.178 140.000,207.800 140.000 C 208.350 140.000,208.800 139.820,208.800 139.600 C 208.800 139.380,209.166 139.200,209.613 139.200 C 210.059 139.200,210.529 138.930,210.655 138.600 C 210.782 138.270,211.316 138.000,211.843 138.000 C 212.369 138.000,212.800 137.820,212.800 137.600 C 212.800 137.380,213.237 137.200,213.771 137.200 C 214.306 137.200,215.013 136.930,215.343 136.600 C 215.673 136.270,216.316 136.000,216.771 136.000 C 217.227 136.000,217.600 135.820,217.600 135.600 C 217.600 135.380,218.127 135.200,218.771 135.200 C 219.416 135.200,220.213 134.930,220.543 134.600 C 220.873 134.270,221.685 134.000,222.348 134.000 C 223.011 134.000,223.664 133.820,223.800 133.600 C 223.936 133.380,224.654 133.200,225.395 133.200 C 226.136 133.200,227.013 132.930,227.343 132.600 C 227.701 132.242,228.679 132.000,229.771 132.000 C 230.777 132.000,231.600 131.820,231.600 131.600 C 231.600 131.368,232.904 131.200,234.711 131.200 C 236.778 131.200,238.099 131.006,238.648 130.621 C 240.444 129.363,263.961 129.356,266.660 130.613 C 267.491 131.000,269.222 131.200,271.737 131.200 C 273.849 131.200,275.663 131.379,275.800 131.600 C 275.936 131.820,276.679 132.000,277.452 132.000 C 278.225 132.000,279.127 132.270,279.457 132.600 C 279.787 132.930,280.754 133.200,281.605 133.200 C 282.456 133.200,283.264 133.380,283.400 133.600 C 283.536 133.820,284.099 134.000,284.652 134.000 C 285.205 134.000,285.927 134.270,286.257 134.600 C 286.587 134.930,287.294 135.200,287.829 135.200 C 288.363 135.200,288.800 135.380,288.800 135.600 C 288.800 135.820,289.228 136.000,289.751 136.000 C 290.274 136.000,290.926 136.270,291.200 136.600 C 291.474 136.930,292.115 137.200,292.625 137.200 C 293.135 137.200,293.664 137.380,293.800 137.600 C 293.936 137.820,294.377 138.000,294.781 138.000 C 295.184 138.000,295.618 138.270,295.745 138.600 C 295.871 138.930,296.341 139.200,296.787 139.200 C 297.234 139.200,297.600 139.380,297.600 139.600 C 297.600 139.820,297.870 140.000,298.200 140.000 C 298.530 140.000,298.800 140.177,298.800 140.392 C 298.800 140.608,299.250 140.898,299.800 141.036 C 300.350 141.174,300.800 141.447,300.800 141.643 C 300.800 141.840,301.250 142.000,301.800 142.000 C 302.350 142.000,302.800 142.183,302.800 142.406 C 302.800 142.630,303.475 143.125,304.300 143.506 C 305.125 143.888,306.019 144.380,306.286 144.600 C 306.553 144.820,307.041 145.225,307.369 145.500 C 307.698 145.775,308.154 146.000,308.383 146.000 C 308.612 146.000,308.800 146.168,308.800 146.373 C 308.800 146.578,309.192 146.870,309.671 147.022 C 310.150 147.174,311.003 147.727,311.567 148.249 C 312.130 148.772,312.819 149.200,313.096 149.200 C 313.373 149.200,313.600 149.380,313.600 149.600 C 313.600 149.820,313.771 150.000,313.979 150.000 C 314.188 150.000,314.844 150.450,315.438 151.000 C 316.031 151.550,316.679 152.000,316.878 152.000 C 317.076 152.000,317.655 152.450,318.165 153.000 C 318.675 153.550,319.219 154.000,319.374 154.000 C 319.530 154.000,319.908 154.225,320.215 154.500 C 321.342 155.511,321.971 156.000,322.143 156.000 C 322.240 156.000,323.208 156.855,324.295 157.900 C 326.219 159.750,327.222 160.533,328.352 161.065 C 329.035 161.387,331.600 160.056,331.600 159.380 C 331.600 159.108,331.870 158.782,332.200 158.655 C 332.530 158.529,332.800 158.149,332.800 157.813 C 332.800 157.476,332.980 157.200,333.200 157.200 C 333.420 157.200,333.600 157.035,333.600 156.834 C 333.600 156.633,334.500 155.520,335.600 154.361 C 336.700 153.201,337.600 152.108,337.600 151.932 C 337.600 151.755,338.500 150.706,339.600 149.600 C 340.700 148.494,341.600 147.489,341.600 147.366 C 341.600 147.243,341.825 146.892,342.100 146.585 C 343.141 145.424,343.600 144.827,343.600 144.633 C 343.600 144.523,344.320 143.698,345.200 142.800 C 346.080 141.902,346.800 140.980,346.800 140.750 C 346.800 140.521,347.385 139.759,348.100 139.056 C 349.658 137.526,351.600 134.994,351.600 134.494 C 351.600 134.297,352.050 133.894,352.600 133.600 C 353.150 133.306,353.600 132.902,353.600 132.704 C 353.600 132.505,353.825 132.117,354.100 131.842 C 354.375 131.566,355.050 130.751,355.600 130.030 C 356.150 129.309,357.005 128.296,357.500 127.778 C 357.995 127.260,358.400 126.648,358.400 126.418 C 358.400 126.188,358.605 126.000,358.856 126.000 C 359.471 126.000,360.372 124.765,360.387 123.900 C 360.394 123.515,360.670 123.200,361.000 123.200 C 361.330 123.200,361.600 123.008,361.600 122.773 C 361.600 122.538,362.230 121.752,363.000 121.026 C 363.770 120.300,364.400 119.322,364.400 118.853 C 364.400 118.384,364.593 118.000,364.829 118.000 C 365.064 118.000,365.514 117.743,365.829 117.429 C 366.143 117.114,366.400 116.664,366.400 116.429 C 366.400 116.193,366.593 116.000,366.829 116.000 C 367.064 116.000,367.514 115.743,367.829 115.429 C 368.143 115.114,368.400 114.664,368.400 114.429 C 368.400 114.193,368.568 114.000,368.773 114.000 C 368.978 114.000,369.272 113.603,369.426 113.119 C 369.753 112.089,370.561 111.200,371.171 111.200 C 371.407 111.200,371.600 111.008,371.600 110.773 C 371.600 110.538,372.230 109.752,373.000 109.026 C 373.770 108.300,374.400 107.322,374.400 106.853 C 374.400 106.384,374.593 106.000,374.829 106.000 C 375.382 106.000,376.400 104.982,376.400 104.429 C 376.400 104.193,376.605 104.000,376.856 104.000 C 377.471 104.000,378.372 102.765,378.387 101.900 C 378.394 101.515,378.670 101.200,379.000 101.200 C 379.330 101.200,379.600 101.048,379.600 100.861 C 379.600 100.675,380.230 99.874,381.000 99.081 C 381.770 98.288,382.400 97.448,382.400 97.215 C 382.400 96.981,383.300 95.894,384.400 94.800 C 385.500 93.706,386.400 92.628,386.400 92.405 C 386.400 92.182,386.539 92.000,386.709 92.000 C 386.879 92.000,387.357 91.370,387.772 90.600 C 388.187 89.830,388.768 89.200,389.063 89.200 C 389.358 89.200,389.600 88.930,389.600 88.600 C 389.600 88.270,389.780 88.000,390.000 88.000 C 390.220 88.000,390.400 87.460,390.400 86.800 C 390.400 86.140,390.220 85.600,390.000 85.600 C 389.780 85.600,389.600 85.330,389.600 85.000 C 389.600 84.670,389.411 84.400,389.181 84.400 C 388.950 84.400,388.365 83.982,387.881 83.470 C 387.396 82.959,386.685 82.424,386.300 82.283 C 385.915 82.141,385.600 81.839,385.600 81.613 C 385.600 81.386,385.407 81.200,385.171 81.200 C 384.618 81.200,383.600 80.182,383.600 79.629 C 383.600 79.393,383.407 79.200,383.171 79.200 C 382.618 79.200,381.600 78.182,381.600 77.629 C 381.600 77.393,381.427 77.200,381.215 77.200 C 381.004 77.200,380.008 76.400,379.002 75.423 C 377.996 74.445,376.819 73.533,376.387 73.396 C 375.954 73.258,375.600 72.978,375.600 72.773 C 375.600 72.568,375.330 72.400,375.000 72.400 C 374.670 72.400,374.400 72.195,374.400 71.944 C 374.400 71.391,373.197 70.430,372.484 70.413 C 372.200 70.406,371.300 69.709,370.484 68.864 C 369.668 68.019,368.415 67.075,367.700 66.766 C 366.494 66.245,366.400 66.067,366.400 64.302 C 366.400 63.256,366.220 62.400,366.000 62.400 C 365.780 62.400,365.600 62.110,365.600 61.756 C 365.600 60.985,362.723 58.071,360.900 56.995 C 360.185 56.573,359.600 55.996,359.600 55.714 C 359.600 55.431,359.451 55.200,359.270 55.200 C 359.088 55.200,357.636 53.922,356.044 52.361 C 354.451 50.799,352.924 49.489,352.651 49.449 C 352.379 49.409,351.715 48.957,351.178 48.444 C 350.640 47.932,349.210 46.775,348.000 45.874 C 346.790 44.973,345.352 43.823,344.804 43.318 C 344.256 42.813,343.581 42.400,343.304 42.400 C 343.027 42.400,342.800 42.220,342.800 42.000 C 342.800 41.780,342.530 41.600,342.200 41.600 C 341.870 41.600,341.600 41.330,341.600 41.000 C 341.600 40.670,341.392 40.400,341.138 40.400 C 340.884 40.400,340.086 39.950,339.364 39.400 C 338.643 38.850,337.771 38.400,337.427 38.400 C 337.082 38.400,336.800 38.220,336.800 38.000 C 336.800 37.780,336.530 37.600,336.200 37.600 C 335.870 37.600,335.600 37.330,335.600 37.000 C 335.600 36.654,335.238 36.400,334.746 36.400 C 334.276 36.400,333.475 35.950,332.965 35.400 C 332.455 34.850,331.760 34.400,331.419 34.400 C 331.079 34.400,330.800 34.220,330.800 34.000 C 330.800 33.780,330.549 33.600,330.243 33.600 C 329.936 33.600,329.582 33.330,329.455 33.000 C 329.329 32.670,328.859 32.400,328.413 32.400 C 327.966 32.400,327.600 32.220,327.600 32.000 C 327.600 31.780,327.330 31.600,327.000 31.600 C 326.670 31.600,326.399 31.465,326.397 31.300 C 326.394 30.910,324.092 29.600,323.410 29.600 C 323.122 29.600,322.782 29.330,322.655 29.000 C 322.529 28.670,322.059 28.400,321.613 28.400 C 321.166 28.400,320.800 28.220,320.800 28.000 C 320.800 27.780,320.369 27.600,319.843 27.600 C 319.316 27.600,318.782 27.330,318.655 27.000 C 318.529 26.670,318.059 26.400,317.613 26.400 C 317.166 26.400,316.800 26.220,316.800 26.000 C 316.800 25.780,316.350 25.600,315.800 25.600 C 315.250 25.600,314.799 25.375,314.797 25.100 C 314.794 24.595,313.046 23.600,312.163 23.600 C 311.900 23.600,311.582 23.330,311.455 23.000 C 311.329 22.670,310.859 22.400,310.413 22.400 C 309.966 22.400,309.600 22.220,309.600 22.000 C 309.600 21.780,309.169 21.600,308.643 21.600 C 308.116 21.600,307.582 21.330,307.455 21.000 C 307.321 20.649,306.721 20.400,306.013 20.400 C 305.346 20.400,304.800 20.220,304.800 20.000 C 304.800 19.780,304.369 19.600,303.843 19.600 C 303.316 19.600,302.782 19.330,302.655 19.000 C 302.529 18.670,301.969 18.400,301.413 18.400 C 300.856 18.400,300.400 18.220,300.400 18.000 C 300.400 17.780,299.770 17.600,299.000 17.600 C 298.022 17.600,297.600 17.419,297.600 17.000 C 297.600 16.627,297.222 16.400,296.600 16.400 C 296.050 16.400,295.600 16.220,295.600 16.000 C 295.600 15.780,294.989 15.600,294.243 15.600 C 293.405 15.600,292.797 15.370,292.655 15.000 C 292.511 14.623,291.899 14.400,291.013 14.400 C 290.236 14.400,289.600 14.220,289.600 14.000 C 289.600 13.780,288.992 13.600,288.249 13.600 C 287.506 13.600,286.674 13.330,286.400 13.000 C 286.114 12.655,285.242 12.400,284.351 12.400 C 283.498 12.400,282.800 12.220,282.800 12.000 C 282.800 11.780,282.080 11.600,281.200 11.600 C 280.044 11.600,279.600 11.433,279.600 11.000 C 279.600 10.547,279.111 10.400,277.600 10.400 C 276.500 10.400,275.600 10.220,275.600 10.000 C 275.600 9.780,274.745 9.594,273.700 9.587 C 272.655 9.580,271.451 9.310,271.024 8.987 C 270.594 8.662,269.398 8.400,268.347 8.400 C 267.302 8.400,266.336 8.220,266.200 8.000 C 266.064 7.780,264.993 7.600,263.819 7.600 C 262.336 7.600,261.619 7.425,261.466 7.027 C 261.243 6.447,260.976 6.421,248.807 5.769 C 246.240 5.632,244.500 5.362,244.321 5.072 C 244.033 4.606,216.961 4.303,209.600 4.684 M197.035 5.944 C 196.918 6.133,195.159 6.383,193.126 6.499 C 190.945 6.623,189.369 6.892,189.282 7.155 C 189.191 7.428,187.990 7.600,186.167 7.600 C 184.456 7.600,183.200 7.769,183.200 8.000 C 183.200 8.221,182.150 8.400,180.849 8.400 C 179.247 8.400,178.339 8.591,178.000 9.000 C 177.670 9.397,176.775 9.600,175.351 9.600 C 174.168 9.600,173.200 9.780,173.200 10.000 C 173.200 10.220,172.322 10.400,171.249 10.400 C 170.003 10.400,169.118 10.617,168.800 11.000 C 168.482 11.383,167.597 11.600,166.351 11.600 C 165.278 11.600,164.400 11.780,164.400 12.000 C 164.400 12.220,163.612 12.400,162.649 12.400 C 161.580 12.400,160.704 12.634,160.400 13.000 C 160.126 13.330,159.294 13.600,158.551 13.600 C 157.808 13.600,157.200 13.780,157.200 14.000 C 157.200 14.220,156.589 14.400,155.843 14.400 C 155.005 14.400,154.397 14.630,154.255 15.000 C 154.111 15.377,153.499 15.600,152.613 15.600 C 151.836 15.600,151.200 15.780,151.200 16.000 C 151.200 16.220,150.589 16.400,149.843 16.400 C 149.005 16.400,148.397 16.630,148.255 17.000 C 148.111 17.377,147.499 17.600,146.613 17.600 C 145.836 17.600,145.200 17.780,145.200 18.000 C 145.200 18.220,144.589 18.400,143.843 18.400 C 143.005 18.400,142.397 18.630,142.255 19.000 C 142.129 19.330,141.569 19.600,141.013 19.600 C 140.456 19.600,140.000 19.780,140.000 20.000 C 140.000 20.220,139.454 20.400,138.787 20.400 C 138.079 20.400,137.479 20.649,137.345 21.000 C 137.218 21.330,136.684 21.600,136.157 21.600 C 135.631 21.600,135.200 21.780,135.200 22.000 C 135.200 22.220,134.750 22.400,134.200 22.400 C 133.578 22.400,133.200 22.627,133.200 23.000 C 133.200 23.373,132.822 23.600,132.200 23.600 C 131.650 23.600,131.200 23.780,131.200 24.000 C 131.200 24.220,130.654 24.400,129.987 24.400 C 129.279 24.400,128.679 24.649,128.545 25.000 C 128.418 25.330,127.884 25.600,127.357 25.600 C 126.831 25.600,126.400 25.780,126.400 26.000 C 126.400 26.220,125.950 26.400,125.400 26.400 C 124.778 26.400,124.400 26.627,124.400 27.000 C 124.400 27.373,124.022 27.600,123.400 27.600 C 122.850 27.600,122.400 27.780,122.400 28.000 C 122.400 28.220,122.034 28.400,121.587 28.400 C 121.141 28.400,120.671 28.670,120.545 29.000 C 120.418 29.330,120.100 29.600,119.837 29.600 C 118.954 29.600,117.206 30.595,117.203 31.100 C 117.201 31.375,116.750 31.600,116.200 31.600 C 115.650 31.600,115.200 31.780,115.200 32.000 C 115.200 32.220,114.750 32.400,114.200 32.400 C 113.578 32.400,113.200 32.627,113.200 33.000 C 113.200 33.373,112.822 33.600,112.200 33.600 C 111.650 33.600,111.200 33.780,111.200 34.000 C 111.200 34.220,110.865 34.400,110.456 34.400 C 110.047 34.400,109.374 34.850,108.961 35.400 C 108.548 35.950,107.887 36.400,107.493 36.400 C 107.098 36.400,106.671 36.670,106.545 37.000 C 106.418 37.330,106.064 37.600,105.757 37.600 C 105.451 37.600,105.200 37.780,105.200 38.000 C 105.200 38.220,104.865 38.400,104.456 38.400 C 104.047 38.400,103.374 38.850,102.961 39.400 C 102.548 39.950,101.884 40.400,101.486 40.400 C 101.088 40.400,100.345 40.850,99.835 41.400 C 99.325 41.950,98.639 42.400,98.310 42.400 C 97.981 42.400,97.374 42.850,96.961 43.400 C 96.548 43.950,95.983 44.400,95.705 44.400 C 95.427 44.400,95.200 44.568,95.200 44.773 C 95.200 44.978,94.801 45.273,94.314 45.427 C 93.827 45.582,92.840 46.314,92.121 47.054 C 91.402 47.794,90.554 48.400,90.236 48.400 C 89.918 48.400,89.304 48.850,88.871 49.400 C 88.439 49.950,87.886 50.400,87.642 50.400 C 87.399 50.400,87.200 50.681,87.200 51.024 C 87.200 51.367,87.039 51.548,86.842 51.426 C 86.645 51.304,86.381 51.474,86.254 51.802 C 86.128 52.131,85.738 52.400,85.386 52.400 C 85.035 52.400,83.782 53.345,82.602 54.500 C 80.195 56.856,78.428 58.400,78.139 58.400 C 77.756 58.400,65.200 71.240,65.200 71.632 C 65.200 71.853,63.670 73.554,61.800 75.411 C 59.776 77.422,58.400 79.115,58.400 79.594 C 58.400 80.037,58.207 80.400,57.971 80.400 C 57.464 80.400,56.400 81.400,56.400 81.876 C 56.400 82.060,55.950 82.548,55.400 82.961 C 54.850 83.374,54.400 83.960,54.400 84.263 C 54.400 84.566,53.815 85.403,53.100 86.122 C 51.804 87.426,51.037 88.462,50.525 89.600 C 50.377 89.930,49.838 90.566,49.328 91.013 C 48.817 91.460,48.400 92.135,48.400 92.513 C 48.400 92.891,48.220 93.200,48.000 93.200 C 47.780 93.200,47.600 93.470,47.600 93.800 C 47.600 94.130,47.423 94.400,47.208 94.400 C 46.992 94.400,46.702 94.850,46.564 95.400 C 46.426 95.950,46.181 96.400,46.020 96.400 C 45.858 96.400,45.387 97.030,44.972 97.800 C 44.557 98.570,44.079 99.200,43.909 99.200 C 43.739 99.200,43.600 99.566,43.600 100.013 C 43.600 100.459,43.330 100.929,43.000 101.055 C 42.670 101.182,42.400 101.536,42.400 101.843 C 42.400 102.149,42.220 102.400,42.000 102.400 C 41.780 102.400,41.600 102.850,41.600 103.400 C 41.600 104.022,41.373 104.400,41.000 104.400 C 40.667 104.400,40.400 104.756,40.400 105.200 C 40.400 105.644,40.667 106.000,41.000 106.000 C 41.333 106.000,41.600 105.644,41.600 105.200 C 41.600 104.760,41.780 104.400,42.000 104.400 C 42.220 104.400,42.400 104.034,42.400 103.587 C 42.400 103.141,42.670 102.671,43.000 102.545 C 43.330 102.418,43.600 102.141,43.600 101.929 C 43.600 101.716,43.825 101.292,44.100 100.985 C 45.287 99.662,45.600 99.209,45.600 98.817 C 45.600 98.588,45.780 98.400,46.000 98.400 C 46.220 98.400,46.400 97.950,46.400 97.400 C 46.400 96.778,46.627 96.400,47.000 96.400 C 47.330 96.400,47.600 96.130,47.600 95.800 C 47.600 95.470,47.780 95.200,48.000 95.200 C 48.220 95.200,48.400 94.924,48.400 94.587 C 48.400 94.251,48.670 93.871,49.000 93.745 C 49.330 93.618,49.600 93.200,49.600 92.816 C 49.600 92.431,50.050 91.631,50.600 91.038 C 51.150 90.444,51.600 89.865,51.600 89.751 C 51.600 89.636,51.825 89.292,52.100 88.985 C 53.287 87.662,53.600 87.209,53.600 86.817 C 53.600 86.588,53.780 86.400,54.000 86.400 C 54.220 86.400,54.400 86.130,54.400 85.800 C 54.400 85.470,54.605 85.200,54.856 85.200 C 55.471 85.200,56.372 83.965,56.387 83.100 C 56.394 82.715,56.593 82.400,56.829 82.400 C 57.382 82.400,58.400 81.382,58.400 80.829 C 58.400 80.593,58.636 80.400,58.925 80.400 C 59.214 80.400,59.698 79.770,60.000 79.000 C 60.302 78.230,60.786 77.600,61.075 77.600 C 61.364 77.600,61.600 77.407,61.600 77.171 C 61.600 76.618,62.618 75.600,63.171 75.600 C 63.407 75.600,63.600 75.416,63.600 75.190 C 63.600 74.965,64.637 73.750,65.904 72.490 C 67.172 71.231,68.685 69.570,69.267 68.800 C 70.860 66.692,75.216 62.400,75.762 62.400 C 75.854 62.400,77.027 61.320,78.368 60.000 C 79.708 58.680,80.882 57.600,80.976 57.600 C 81.070 57.600,82.071 56.700,83.200 55.600 C 84.329 54.500,85.511 53.600,85.827 53.600 C 86.142 53.600,86.400 53.330,86.400 53.000 C 86.400 52.670,86.670 52.400,87.000 52.400 C 87.330 52.400,87.600 52.220,87.600 52.000 C 87.600 51.780,87.793 51.600,88.029 51.600 C 88.264 51.600,88.708 51.375,89.015 51.100 C 90.338 49.913,90.791 49.600,91.183 49.600 C 91.412 49.600,91.600 49.395,91.600 49.144 C 91.600 48.529,92.835 47.628,93.700 47.613 C 94.085 47.606,94.400 47.330,94.400 47.000 C 94.400 46.670,94.588 46.400,94.817 46.400 C 95.047 46.400,95.702 45.967,96.272 45.438 C 96.842 44.910,97.770 44.235,98.333 43.938 C 98.896 43.642,99.798 42.995,100.337 42.500 C 100.876 42.005,101.561 41.600,101.858 41.600 C 102.156 41.600,102.400 41.461,102.400 41.291 C 102.400 41.121,103.075 40.626,103.900 40.192 C 104.725 39.757,105.619 39.221,105.886 39.001 C 107.381 37.768,108.829 36.834,109.700 36.542 C 110.085 36.412,110.400 36.148,110.400 35.953 C 110.400 35.759,110.670 35.600,111.000 35.600 C 111.330 35.600,111.600 35.423,111.600 35.208 C 111.600 34.992,112.050 34.702,112.600 34.564 C 113.150 34.426,113.600 34.153,113.600 33.957 C 113.600 33.760,113.855 33.600,114.168 33.600 C 114.881 33.600,117.194 32.302,117.197 31.900 C 117.199 31.735,117.631 31.600,118.157 31.600 C 118.684 31.600,119.218 31.330,119.345 31.000 C 119.471 30.670,119.941 30.400,120.387 30.400 C 120.834 30.400,121.200 30.220,121.200 30.000 C 121.200 29.780,121.650 29.600,122.200 29.600 C 122.750 29.600,123.200 29.440,123.200 29.243 C 123.200 29.047,123.650 28.774,124.200 28.636 C 124.750 28.498,125.200 28.208,125.200 27.992 C 125.200 27.777,125.560 27.600,126.000 27.600 C 126.440 27.600,126.800 27.423,126.800 27.208 C 126.800 26.992,127.250 26.702,127.800 26.564 C 128.350 26.426,128.800 26.153,128.800 25.957 C 128.800 25.760,129.235 25.600,129.768 25.600 C 130.746 25.600,133.288 24.453,133.533 23.900 C 133.607 23.735,134.102 23.600,134.633 23.600 C 135.165 23.600,135.600 23.434,135.600 23.232 C 135.600 23.029,136.138 22.745,136.795 22.601 C 137.453 22.457,138.094 22.172,138.219 21.969 C 138.345 21.766,138.872 21.600,139.390 21.600 C 139.909 21.600,140.393 21.465,140.467 21.300 C 140.731 20.706,143.289 19.600,144.400 19.600 C 145.511 19.600,148.069 18.494,148.333 17.900 C 148.407 17.735,149.061 17.600,149.788 17.600 C 150.514 17.600,151.624 17.331,152.254 17.002 C 152.884 16.674,153.715 16.404,154.100 16.402 C 154.485 16.401,154.800 16.220,154.800 16.000 C 154.800 15.780,155.419 15.600,156.176 15.600 C 156.933 15.600,157.655 15.434,157.781 15.231 C 157.906 15.028,158.547 14.743,159.205 14.599 C 159.862 14.455,160.400 14.171,160.400 13.968 C 160.400 13.766,161.480 13.600,162.800 13.600 C 164.120 13.600,165.200 13.437,165.200 13.238 C 165.200 13.038,166.100 12.751,167.200 12.600 C 168.300 12.449,169.200 12.162,169.200 11.962 C 169.200 11.763,170.280 11.600,171.600 11.600 C 172.920 11.600,174.000 11.437,174.000 11.238 C 174.000 11.038,174.900 10.751,176.000 10.600 C 177.099 10.449,178.100 10.162,178.223 9.963 C 178.346 9.763,179.596 9.600,181.000 9.600 C 182.404 9.600,183.658 9.430,183.786 9.223 C 183.914 9.016,185.274 8.723,186.809 8.572 C 188.344 8.420,189.600 8.140,189.600 7.948 C 189.600 7.757,191.299 7.600,193.376 7.600 C 195.453 7.600,197.255 7.434,197.380 7.232 C 197.506 7.029,199.406 6.736,201.604 6.580 C 203.802 6.424,205.600 6.140,205.600 5.948 C 205.600 5.496,197.314 5.492,197.035 5.944 M39.100 107.157 C 38.715 107.548,38.400 108.167,38.400 108.534 C 38.400 108.900,38.220 109.200,38.000 109.200 C 37.780 109.200,37.600 109.650,37.600 110.200 C 37.600 110.822,37.373 111.200,37.000 111.200 C 36.627 111.200,36.400 111.578,36.400 112.200 C 36.400 112.750,36.220 113.200,36.000 113.200 C 35.780 113.200,35.600 113.650,35.600 114.200 C 35.600 114.822,35.373 115.200,35.000 115.200 C 34.670 115.200,34.400 115.470,34.400 115.800 C 34.400 116.130,34.220 116.400,34.000 116.400 C 33.780 116.400,33.600 116.850,33.600 117.400 C 33.600 118.022,33.373 118.400,33.000 118.400 C 32.627 118.400,32.400 118.778,32.400 119.400 C 32.400 119.950,32.220 120.400,32.000 120.400 C 31.780 120.400,31.600 120.946,31.600 121.613 C 31.600 122.321,31.351 122.921,31.000 123.055 C 30.670 123.182,30.400 123.716,30.400 124.243 C 30.400 124.769,30.220 125.200,30.000 125.200 C 29.780 125.200,29.600 125.650,29.600 126.200 C 29.600 126.822,29.373 127.200,29.000 127.200 C 28.627 127.200,28.400 127.578,28.400 128.200 C 28.400 128.750,28.220 129.200,28.000 129.200 C 27.780 129.200,27.600 129.631,27.600 130.157 C 27.600 130.684,27.330 131.218,27.000 131.345 C 26.670 131.471,26.400 132.020,26.400 132.564 C 26.400 133.108,26.220 133.664,26.000 133.800 C 25.780 133.936,25.600 134.467,25.600 134.981 C 25.600 135.494,25.330 136.018,25.000 136.145 C 24.670 136.271,24.400 136.820,24.400 137.364 C 24.400 137.908,24.220 138.464,24.000 138.600 C 23.780 138.736,23.600 139.357,23.600 139.981 C 23.600 140.619,23.338 141.215,23.000 141.345 C 22.653 141.478,22.400 142.076,22.400 142.764 C 22.400 143.418,22.220 144.064,22.000 144.200 C 21.780 144.336,21.600 145.067,21.600 145.824 C 21.600 146.780,21.417 147.200,21.000 147.200 C 20.581 147.200,20.400 147.622,20.400 148.600 C 20.400 149.370,20.220 150.000,20.000 150.000 C 19.780 150.000,19.600 150.720,19.600 151.600 C 19.600 152.756,19.433 153.200,19.000 153.200 C 18.583 153.200,18.400 153.620,18.400 154.576 C 18.400 155.333,18.220 156.064,18.000 156.200 C 17.780 156.336,17.600 157.225,17.600 158.175 C 17.600 159.222,17.364 160.098,17.000 160.400 C 16.182 161.079,16.182 164.000,17.000 164.000 C 17.444 164.000,17.600 163.533,17.600 162.200 C 17.600 161.210,17.780 160.400,18.000 160.400 C 18.220 160.400,18.400 159.693,18.400 158.829 C 18.400 157.964,18.670 156.987,19.000 156.657 C 19.330 156.327,19.600 155.414,19.600 154.629 C 19.600 153.843,19.780 153.200,20.000 153.200 C 20.220 153.200,20.400 152.474,20.400 151.587 C 20.400 150.523,20.604 149.897,21.000 149.745 C 21.342 149.613,21.600 149.017,21.600 148.357 C 21.600 147.721,21.780 147.200,22.000 147.200 C 22.220 147.200,22.400 146.763,22.400 146.229 C 22.400 145.694,22.670 144.987,23.000 144.657 C 23.330 144.327,23.600 143.504,23.600 142.829 C 23.600 142.153,23.780 141.600,24.000 141.600 C 24.220 141.600,24.400 141.054,24.400 140.387 C 24.400 139.679,24.649 139.079,25.000 138.945 C 25.342 138.813,25.600 138.217,25.600 137.557 C 25.600 136.921,25.780 136.400,26.000 136.400 C 26.220 136.400,26.400 135.854,26.400 135.187 C 26.400 134.479,26.649 133.879,27.000 133.745 C 27.330 133.618,27.600 133.184,27.600 132.781 C 27.600 132.377,27.780 131.936,28.000 131.800 C 28.220 131.664,28.400 131.198,28.400 130.764 C 28.400 130.330,28.670 129.871,29.000 129.745 C 29.330 129.618,29.600 129.094,29.600 128.581 C 29.600 128.067,29.780 127.536,30.000 127.400 C 30.220 127.264,30.400 126.713,30.400 126.176 C 30.400 125.575,30.631 125.200,31.000 125.200 C 31.373 125.200,31.600 124.822,31.600 124.200 C 31.600 123.650,31.780 123.200,32.000 123.200 C 32.220 123.200,32.400 122.744,32.400 122.187 C 32.400 121.631,32.670 121.071,33.000 120.945 C 33.330 120.818,33.600 120.284,33.600 119.757 C 33.600 119.231,33.780 118.800,34.000 118.800 C 34.220 118.800,34.400 118.440,34.400 118.000 C 34.400 117.556,34.667 117.200,35.000 117.200 C 35.373 117.200,35.600 116.822,35.600 116.200 C 35.600 115.650,35.780 115.200,36.000 115.200 C 36.220 115.200,36.400 114.834,36.400 114.387 C 36.400 113.941,36.670 113.471,37.000 113.345 C 37.330 113.218,37.600 112.774,37.600 112.357 C 37.600 111.941,37.780 111.600,38.000 111.600 C 38.220 111.600,38.400 111.343,38.400 111.029 C 38.400 110.714,38.625 110.212,38.900 109.913 C 40.767 107.882,40.956 105.275,39.100 107.157 M15.600 165.924 C 15.600 167.324,15.422 167.983,15.000 168.145 C 14.589 168.302,14.400 168.945,14.400 170.187 C 14.400 171.184,14.220 172.000,14.000 172.000 C 13.777 172.000,13.600 173.076,13.600 174.429 C 13.600 176.054,13.402 177.056,13.000 177.457 C 12.591 177.866,12.400 178.876,12.400 180.629 C 12.400 182.076,12.225 183.200,12.000 183.200 C 11.779 183.200,11.600 184.240,11.600 185.520 C 11.600 186.796,11.383 188.057,11.118 188.322 C 10.834 188.606,10.571 190.403,10.477 192.702 C 10.389 194.846,10.156 196.771,9.959 196.980 C 9.761 197.189,9.600 199.289,9.600 201.647 C 9.600 204.600,9.452 205.983,9.125 206.092 C 8.783 206.206,8.602 208.875,8.479 215.625 C 8.385 220.781,8.174 225.180,8.009 225.400 C 7.567 225.992,8.257 256.849,8.728 257.500 C 9.562 258.653,9.929 243.328,9.133 240.600 C 8.462 238.299,8.349 230.096,8.969 228.613 C 9.483 227.381,9.600 225.354,9.600 217.631 C 9.600 212.422,9.763 207.989,9.961 207.780 C 10.160 207.571,10.393 205.072,10.479 202.227 C 10.587 198.668,10.786 197.005,11.118 196.894 C 11.449 196.784,11.600 195.550,11.600 192.967 C 11.600 190.722,11.762 189.200,12.000 189.200 C 12.228 189.200,12.400 188.010,12.400 186.429 C 12.400 184.498,12.582 183.475,13.000 183.057 C 13.390 182.667,13.600 181.676,13.600 180.229 C 13.600 179.003,13.756 178.000,13.947 178.000 C 14.138 178.000,14.384 176.613,14.493 174.918 C 14.607 173.137,14.882 171.773,15.145 171.685 C 15.395 171.602,15.600 170.864,15.600 170.047 C 15.600 169.229,15.764 168.389,15.964 168.180 C 16.561 167.556,16.670 164.297,16.100 164.103 C 15.744 163.982,15.600 164.508,15.600 165.924 M207.680 193.280 C 207.312 193.648,207.200 204.705,207.200 240.612 L 207.200 287.465 208.208 288.004 C 208.983 288.419,209.326 288.434,209.688 288.072 C 210.051 287.709,209.910 287.600,209.080 287.600 L 208.000 287.600 208.000 240.800 L 208.000 194.000 290.800 194.000 C 364.133 194.000,373.600 193.931,373.600 193.400 C 373.600 192.594,208.486 192.474,207.680 193.280 M373.287 217.928 C 372.931 221.695,372.812 245.674,372.823 311.111 L 372.838 399.223 372.013 400.382 C 371.558 401.020,369.705 402.757,367.893 404.242 C 366.082 405.728,364.418 407.156,364.196 407.416 C 363.061 408.747,351.915 416.525,345.800 420.254 C 339.337 424.194,322.756 432.800,321.627 432.800 C 321.447 432.800,319.565 433.605,317.444 434.590 C 310.737 437.703,294.407 443.416,288.846 444.595 C 287.391 444.903,285.480 445.410,284.600 445.721 C 281.134 446.947,266.507 449.712,259.600 450.447 C 257.510 450.670,253.019 451.216,249.619 451.660 C 241.426 452.732,211.004 452.838,203.825 451.819 C 201.419 451.478,197.009 451.019,194.025 450.799 C 191.041 450.580,186.890 450.054,184.800 449.631 C 182.710 449.207,178.030 448.296,174.400 447.604 C 170.770 446.913,166.990 446.093,166.000 445.782 C 165.010 445.471,163.030 444.947,161.600 444.617 C 156.568 443.457,151.763 442.098,148.200 440.829 C 146.220 440.124,142.530 438.851,140.000 438.000 C 134.758 436.237,134.056 435.959,127.200 432.925 C 124.450 431.708,120.958 430.166,119.439 429.497 C 114.915 427.505,100.968 419.595,95.593 415.973 C 92.840 414.118,89.420 411.846,87.993 410.924 C 86.567 410.002,84.913 408.787,84.317 408.224 C 83.722 407.661,83.078 407.200,82.887 407.200 C 82.696 407.200,82.117 406.750,81.600 406.200 C 81.083 405.650,80.509 405.200,80.323 405.200 C 80.138 405.200,79.374 404.570,78.626 403.800 C 77.284 402.418,76.400 402.021,76.400 402.800 C 76.400 403.020,76.580 403.200,76.800 403.200 C 77.020 403.200,77.200 403.470,77.200 403.800 C 77.200 404.130,77.386 404.400,77.613 404.400 C 78.206 404.400,80.278 406.605,81.004 408.007 C 81.343 408.663,81.796 409.200,82.010 409.200 C 82.225 409.200,82.400 409.393,82.400 409.629 C 82.400 410.182,83.418 411.200,83.971 411.200 C 84.207 411.200,84.400 411.393,84.400 411.629 C 84.400 412.032,85.363 413.200,85.695 413.200 C 85.779 413.200,88.581 415.900,91.921 419.200 C 95.261 422.500,98.265 425.200,98.597 425.200 C 98.929 425.200,99.200 425.470,99.200 425.800 C 99.200 426.130,99.387 426.400,99.615 426.400 C 99.843 426.400,100.817 427.210,101.779 428.200 C 102.741 429.190,103.725 430.000,103.964 430.000 C 104.204 430.000,104.400 430.270,104.400 430.600 C 104.400 430.930,104.593 431.200,104.829 431.200 C 105.064 431.200,105.508 431.425,105.815 431.700 C 107.138 432.887,107.591 433.200,107.983 433.200 C 108.212 433.200,108.400 433.393,108.400 433.629 C 108.400 434.182,109.418 435.200,109.971 435.200 C 110.207 435.200,110.400 435.368,110.400 435.573 C 110.400 435.778,110.805 436.074,111.300 436.230 C 111.795 436.387,112.470 436.823,112.800 437.200 C 113.130 437.577,113.805 438.013,114.300 438.170 C 114.795 438.326,115.200 438.622,115.200 438.827 C 115.200 439.032,115.470 439.200,115.800 439.200 C 116.130 439.200,116.400 439.368,116.400 439.573 C 116.400 439.778,116.805 440.074,117.300 440.230 C 117.795 440.387,118.470 440.823,118.800 441.200 C 119.130 441.577,119.805 442.013,120.300 442.170 C 120.795 442.326,121.200 442.622,121.200 442.827 C 121.200 443.032,121.470 443.200,121.800 443.200 C 122.130 443.200,122.400 443.368,122.400 443.573 C 122.400 443.778,122.805 444.074,123.300 444.230 C 123.795 444.387,124.491 444.849,124.847 445.257 C 125.203 445.666,125.858 446.000,126.304 446.000 C 126.750 446.000,127.218 446.270,127.345 446.600 C 127.471 446.930,127.941 447.200,128.387 447.200 C 128.834 447.200,129.200 447.380,129.200 447.600 C 129.200 447.820,129.650 448.000,130.200 448.000 C 130.822 448.000,131.200 448.227,131.200 448.600 C 131.200 448.973,131.578 449.200,132.200 449.200 C 132.750 449.200,133.200 449.380,133.200 449.600 C 133.200 449.820,133.650 450.000,134.200 450.000 C 134.822 450.000,135.200 450.227,135.200 450.600 C 135.200 450.930,135.470 451.200,135.800 451.200 C 136.130 451.200,136.400 451.380,136.400 451.600 C 136.400 451.820,136.850 452.000,137.400 452.000 C 138.022 452.000,138.400 452.227,138.400 452.600 C 138.400 452.930,138.749 453.200,139.176 453.200 C 139.603 453.200,140.064 453.380,140.200 453.600 C 140.336 453.820,140.867 454.000,141.381 454.000 C 141.894 454.000,142.418 454.270,142.545 454.600 C 142.671 454.930,143.141 455.200,143.587 455.200 C 144.034 455.200,144.400 455.380,144.400 455.600 C 144.400 455.820,145.030 456.000,145.800 456.000 C 146.778 456.000,147.200 456.181,147.200 456.600 C 147.200 456.973,147.578 457.200,148.200 457.200 C 148.750 457.200,149.200 457.380,149.200 457.600 C 149.200 457.820,149.639 458.000,150.176 458.000 C 150.713 458.000,151.257 458.169,151.384 458.375 C 151.757 458.977,154.044 460.000,155.019 460.000 C 155.511 460.000,156.018 460.270,156.145 460.600 C 156.271 460.930,156.831 461.200,157.387 461.200 C 157.944 461.200,158.400 461.380,158.400 461.600 C 158.400 461.820,159.210 462.000,160.200 462.000 C 161.533 462.000,162.000 462.156,162.000 462.600 C 162.000 462.969,162.375 463.200,162.976 463.200 C 163.513 463.200,164.064 463.380,164.200 463.600 C 164.336 463.820,165.047 464.000,165.781 464.000 C 166.597 464.000,167.204 464.233,167.345 464.600 C 167.471 464.930,168.020 465.200,168.564 465.200 C 169.108 465.200,169.664 465.380,169.800 465.600 C 169.936 465.820,170.757 466.000,171.624 466.000 C 172.758 466.000,173.200 466.168,173.200 466.600 C 173.200 466.969,173.575 467.200,174.176 467.200 C 174.713 467.200,175.264 467.380,175.400 467.600 C 175.536 467.820,176.607 468.000,177.781 468.000 C 179.308 468.000,179.980 468.170,180.145 468.600 C 180.289 468.977,180.901 469.200,181.787 469.200 C 182.564 469.200,183.200 469.380,183.200 469.600 C 183.200 469.821,184.252 470.000,185.557 470.000 C 187.284 470.000,187.976 470.161,188.145 470.600 C 188.271 470.930,188.820 471.200,189.364 471.200 C 189.908 471.200,190.464 471.380,190.600 471.600 C 190.736 471.820,192.019 472.000,193.452 472.000 C 195.234 472.000,196.247 472.190,196.657 472.600 C 196.987 472.930,197.964 473.200,198.829 473.200 C 199.693 473.200,200.400 473.380,200.400 473.600 C 200.400 473.834,201.743 474.000,203.629 474.000 C 205.965 474.000,207.023 474.166,207.457 474.600 C 207.787 474.930,208.764 475.200,209.629 475.200 C 210.493 475.200,211.200 475.380,211.200 475.600 C 211.200 475.848,213.442 476.005,217.100 476.013 C 221.653 476.023,223.177 476.160,223.776 476.613 C 224.281 476.994,225.498 477.200,227.253 477.200 C 228.738 477.200,230.064 477.380,230.200 477.600 C 230.359 477.858,237.530 478.000,250.400 478.000 C 263.270 478.000,270.441 477.858,270.600 477.600 C 270.736 477.380,271.904 477.200,273.195 477.200 C 274.749 477.200,275.746 476.997,276.143 476.600 C 276.615 476.128,277.855 476.000,281.948 476.000 C 284.986 476.000,287.256 475.834,287.400 475.600 C 287.536 475.380,288.344 475.200,289.195 475.200 C 290.046 475.200,291.013 474.930,291.343 474.600 C 291.783 474.160,292.857 474.000,295.371 474.000 C 297.390 474.000,298.800 473.836,298.800 473.600 C 298.800 473.380,299.576 473.200,300.524 473.200 C 301.471 473.200,302.596 472.936,303.024 472.613 C 303.451 472.290,304.655 472.020,305.700 472.013 C 306.745 472.006,307.600 471.820,307.600 471.600 C 307.600 471.380,308.236 471.200,309.013 471.200 C 309.899 471.200,310.511 470.977,310.655 470.600 C 310.816 470.181,311.469 470.000,312.819 470.000 C 313.883 470.000,314.864 469.820,315.000 469.600 C 315.136 469.380,315.755 469.200,316.375 469.200 C 316.995 469.200,317.726 468.930,318.000 468.600 C 318.286 468.255,319.158 468.000,320.049 468.000 C 320.902 468.000,321.600 467.820,321.600 467.600 C 321.600 467.380,322.146 467.200,322.813 467.200 C 323.521 467.200,324.121 466.951,324.255 466.600 C 324.405 466.209,325.028 466.000,326.043 466.000 C 326.899 466.000,327.600 465.820,327.600 465.600 C 327.600 465.380,328.146 465.200,328.813 465.200 C 329.521 465.200,330.121 464.951,330.255 464.600 C 330.405 464.209,331.028 464.000,332.043 464.000 C 332.899 464.000,333.600 463.820,333.600 463.600 C 333.600 463.380,334.050 463.200,334.600 463.200 C 335.222 463.200,335.600 462.973,335.600 462.600 C 335.600 462.181,336.022 462.000,337.000 462.000 C 337.770 462.000,338.400 461.820,338.400 461.600 C 338.400 461.380,338.831 461.200,339.357 461.200 C 339.884 461.200,340.418 460.930,340.545 460.600 C 340.679 460.249,341.279 460.000,341.987 460.000 C 342.654 460.000,343.200 459.820,343.200 459.600 C 343.200 459.380,343.538 459.200,343.951 459.200 C 344.364 459.200,344.926 458.930,345.200 458.600 C 345.474 458.270,346.126 458.000,346.649 458.000 C 347.172 458.000,347.600 457.820,347.600 457.600 C 347.600 457.380,348.050 457.200,348.600 457.200 C 349.222 457.200,349.600 456.973,349.600 456.600 C 349.600 456.241,349.969 456.000,350.520 456.000 C 351.773 456.000,353.593 455.113,353.597 454.500 C 353.599 454.225,354.050 454.000,354.600 454.000 C 355.150 454.000,355.600 453.820,355.600 453.600 C 355.600 453.380,356.050 453.200,356.600 453.200 C 357.222 453.200,357.600 452.973,357.600 452.600 C 357.600 452.227,357.978 452.000,358.600 452.000 C 359.150 452.000,359.600 451.820,359.600 451.600 C 359.600 451.380,360.050 451.200,360.600 451.200 C 361.222 451.200,361.600 450.973,361.600 450.600 C 361.600 450.227,361.978 450.000,362.600 450.000 C 363.150 450.000,363.600 449.820,363.600 449.600 C 363.600 449.380,363.966 449.200,364.413 449.200 C 364.859 449.200,365.329 448.930,365.455 448.600 C 365.582 448.270,366.039 448.000,366.471 448.000 C 367.321 448.000,368.400 447.121,368.400 446.429 C 368.400 446.193,368.850 446.000,369.400 446.000 C 369.950 446.000,370.400 445.856,370.400 445.680 C 370.400 445.505,371.042 445.129,371.826 444.845 C 372.610 444.561,373.350 444.075,373.469 443.765 C 373.588 443.454,373.981 443.194,374.343 443.187 C 375.172 443.171,376.400 442.257,376.400 441.656 C 376.400 441.405,376.784 441.200,377.254 441.200 C 377.724 441.200,378.525 440.750,379.035 440.200 C 379.545 439.650,380.107 439.200,380.285 439.200 C 380.463 439.200,381.093 438.750,381.687 438.200 C 382.280 437.650,382.953 437.200,383.183 437.200 C 383.412 437.200,383.600 437.032,383.600 436.827 C 383.600 436.622,383.990 436.330,384.466 436.179 C 384.942 436.028,385.761 435.476,386.284 434.952 C 386.808 434.428,387.432 434.000,387.671 434.000 C 387.910 434.000,388.700 433.370,389.426 432.600 C 390.152 431.830,390.908 431.200,391.106 431.200 C 391.303 431.200,391.706 430.750,392.000 430.200 C 392.294 429.650,392.698 429.200,392.896 429.200 C 393.395 429.200,394.400 428.150,394.400 427.629 C 394.400 427.393,394.770 427.200,395.223 427.200 C 395.675 427.200,396.575 426.620,397.223 425.911 L 398.400 424.622 398.400 321.311 C 398.400 252.704,398.266 218.000,398.000 218.000 C 397.780 218.000,397.600 217.730,397.600 217.400 C 397.600 216.883,396.225 216.800,387.624 216.800 C 381.404 216.800,377.554 216.649,377.400 216.400 C 377.264 216.180,376.533 216.000,375.776 216.000 C 374.475 216.000,374.400 215.925,374.400 214.624 C 374.400 211.290,373.724 213.296,373.287 217.928 M9.061 258.273 C 8.646 258.687,8.759 260.400,9.200 260.400 C 9.442 260.400,9.600 262.125,9.600 264.776 C 9.600 267.263,9.773 269.260,10.000 269.400 C 10.220 269.536,10.400 271.145,10.400 272.975 C 10.400 275.444,10.555 276.430,11.000 276.800 C 11.433 277.160,11.600 278.111,11.600 280.225 C 11.600 281.835,11.780 283.264,12.000 283.400 C 12.220 283.536,12.400 284.682,12.400 285.947 C 12.400 287.350,12.629 288.550,12.987 289.024 C 13.323 289.468,13.580 290.689,13.587 291.876 C 13.594 293.018,13.780 294.064,14.000 294.200 C 14.220 294.336,14.400 295.252,14.400 296.236 C 14.400 297.457,14.590 298.098,15.000 298.255 C 15.438 298.424,15.600 299.114,15.600 300.819 C 15.600 302.103,15.780 303.264,16.000 303.400 C 16.220 303.536,16.400 304.254,16.400 304.995 C 16.400 305.736,16.670 306.613,17.000 306.943 C 17.330 307.273,17.600 308.186,17.600 308.971 C 17.600 309.757,17.780 310.400,18.000 310.400 C 18.220 310.400,18.400 309.680,18.400 308.800 C 18.400 307.920,18.220 307.200,18.000 307.200 C 17.780 307.200,17.600 306.319,17.600 305.243 C 17.600 303.872,17.420 303.217,17.000 303.055 C 16.567 302.889,16.400 302.210,16.400 300.613 C 16.400 299.396,16.220 298.400,16.000 298.400 C 15.780 298.400,15.600 297.519,15.600 296.443 C 15.600 295.072,15.420 294.417,15.000 294.255 C 14.551 294.083,14.400 293.366,14.400 291.413 C 14.400 289.938,14.226 288.800,14.000 288.800 C 13.772 288.800,13.600 287.611,13.600 286.033 C 13.600 284.322,13.426 283.209,13.145 283.115 C 12.882 283.027,12.607 281.663,12.493 279.882 C 12.384 278.187,12.138 276.800,11.947 276.800 C 11.756 276.800,11.600 275.257,11.600 273.371 C 11.600 270.857,11.440 269.783,11.000 269.343 C 10.541 268.884,10.400 267.729,10.400 264.417 C 10.400 260.352,9.788 257.545,9.061 258.273 M231.400 287.369 L 226.200 287.833 228.000 288.402 C 230.774 289.279,230.664 288.823,230.886 300.355 C 231.111 312.036,230.990 311.583,233.876 311.594 C 234.798 311.597,235.664 311.780,235.800 312.000 C 235.959 312.257,242.137 312.400,253.024 312.400 L 270.000 312.400 270.000 314.000 C 270.000 314.880,270.180 315.600,270.400 315.600 C 270.660 315.600,270.796 320.758,270.787 330.300 C 270.774 345.943,270.719 346.400,268.856 346.400 C 268.362 346.400,268.000 346.654,268.000 347.000 C 268.000 347.373,267.622 347.600,267.000 347.600 C 266.450 347.600,266.000 347.780,266.000 348.000 C 266.000 348.220,265.569 348.400,265.043 348.400 C 264.516 348.400,263.982 348.670,263.855 349.000 C 263.704 349.394,263.080 349.600,262.036 349.600 C 261.162 349.600,260.336 349.780,260.200 350.000 C 260.064 350.220,259.436 350.400,258.805 350.400 C 258.174 350.400,257.387 350.670,257.057 351.000 C 256.669 351.388,255.679 351.600,254.252 351.600 C 253.039 351.600,251.936 351.780,251.800 352.000 C 251.658 352.230,249.560 352.401,246.876 352.402 C 243.510 352.404,241.879 352.572,241.054 353.002 C 240.424 353.331,239.230 353.600,238.400 353.600 C 237.570 353.600,236.376 353.331,235.746 353.002 C 234.209 352.201,220.236 352.107,220.499 352.900 C 220.765 353.702,238.069 354.291,246.600 353.788 C 249.286 353.630,251.234 353.327,251.600 353.009 C 251.954 352.703,253.348 352.469,255.000 352.438 C 256.540 352.410,257.860 352.210,257.933 351.994 C 258.007 351.777,258.592 351.600,259.233 351.600 C 259.875 351.600,260.400 351.444,260.400 351.253 C 260.400 351.062,261.161 350.803,262.091 350.678 C 263.022 350.554,263.847 350.260,263.925 350.026 C 264.003 349.792,264.502 349.600,265.033 349.600 C 265.565 349.600,266.000 349.420,266.000 349.200 C 266.000 348.980,266.338 348.800,266.751 348.800 C 267.164 348.800,267.726 348.530,268.000 348.200 C 268.274 347.870,268.836 347.600,269.249 347.600 C 269.662 347.600,270.000 347.420,270.000 347.200 C 270.000 346.980,270.205 346.800,270.456 346.800 C 271.948 346.800,271.974 346.275,271.987 316.546 L 272.000 287.692 268.900 287.265 C 264.796 286.700,238.067 286.774,231.400 287.369 M213.000 288.000 C 213.317 288.513,219.207 288.513,220.000 288.000 C 220.410 287.735,219.357 287.610,216.676 287.606 C 214.161 287.602,212.842 287.744,213.000 288.000 M18.400 312.164 C 18.400 312.900,18.670 313.726,19.000 314.000 C 19.330 314.274,19.600 315.005,19.600 315.625 C 19.600 316.245,19.780 316.864,20.000 317.000 C 20.220 317.136,20.400 317.764,20.400 318.395 C 20.400 319.026,20.670 319.813,21.000 320.143 C 21.330 320.473,21.600 321.116,21.600 321.571 C 21.600 322.027,21.780 322.400,22.000 322.400 C 22.220 322.400,22.400 321.860,22.400 321.200 C 22.400 320.540,22.220 320.000,22.000 320.000 C 21.780 320.000,21.600 319.389,21.600 318.643 C 21.600 317.805,21.370 317.197,21.000 317.055 C 20.623 316.911,20.400 316.299,20.400 315.413 C 20.400 314.636,20.220 314.000,20.000 314.000 C 19.780 314.000,19.600 313.389,19.600 312.643 C 19.600 311.805,19.370 311.197,19.000 311.055 C 18.540 310.879,18.400 311.138,18.400 312.164 M22.400 324.151 C 22.400 324.674,22.670 325.326,23.000 325.600 C 23.330 325.874,23.600 326.616,23.600 327.249 C 23.600 327.882,23.780 328.400,24.000 328.400 C 24.220 328.400,24.400 328.850,24.400 329.400 C 24.400 330.022,24.627 330.400,25.000 330.400 C 25.419 330.400,25.600 330.822,25.600 331.800 C 25.600 332.570,25.780 333.200,26.000 333.200 C 26.220 333.200,26.400 333.656,26.400 334.213 C 26.400 334.769,26.670 335.329,27.000 335.455 C 27.330 335.582,27.600 336.116,27.600 336.643 C 27.600 337.169,27.780 337.600,28.000 337.600 C 28.220 337.600,28.400 338.037,28.400 338.571 C 28.400 339.106,28.670 339.813,29.000 340.143 C 29.330 340.473,29.600 341.116,29.600 341.571 C 29.600 342.027,29.780 342.400,30.000 342.400 C 30.220 342.400,30.400 342.766,30.400 343.213 C 30.400 343.659,30.670 344.129,31.000 344.255 C 31.330 344.382,31.600 344.916,31.600 345.443 C 31.600 345.969,31.780 346.400,32.000 346.400 C 32.220 346.400,32.400 346.670,32.400 347.000 C 32.400 347.330,32.670 347.600,33.000 347.600 C 33.333 347.600,33.600 347.244,33.600 346.800 C 33.600 346.360,33.423 346.000,33.208 346.000 C 32.992 346.000,32.702 345.550,32.564 345.000 C 32.426 344.450,32.153 344.000,31.957 344.000 C 31.760 344.000,31.600 343.717,31.600 343.371 C 31.600 343.026,31.330 342.473,31.000 342.143 C 30.670 341.813,30.400 341.196,30.400 340.771 C 30.400 340.347,30.220 340.000,30.000 340.000 C 29.780 340.000,29.600 339.460,29.600 338.800 C 29.600 338.000,29.400 337.600,29.000 337.600 C 28.600 337.600,28.400 337.200,28.400 336.400 C 28.400 335.740,28.220 335.200,28.000 335.200 C 27.780 335.200,27.600 334.750,27.600 334.200 C 27.600 333.578,27.373 333.200,27.000 333.200 C 26.581 333.200,26.400 332.778,26.400 331.800 C 26.400 331.030,26.220 330.400,26.000 330.400 C 25.780 330.400,25.600 329.969,25.600 329.443 C 25.600 328.916,25.330 328.382,25.000 328.255 C 24.670 328.129,24.400 327.580,24.400 327.036 C 24.400 326.492,24.220 325.936,24.000 325.800 C 23.780 325.664,23.600 325.023,23.600 324.376 C 23.600 323.597,23.397 323.200,23.000 323.200 C 22.635 323.200,22.400 323.572,22.400 324.151 M33.600 348.800 C 33.600 349.240,33.780 349.600,34.000 349.600 C 34.220 349.600,34.400 349.966,34.400 350.413 C 34.400 350.859,34.670 351.329,35.000 351.455 C 35.330 351.582,35.600 352.016,35.600 352.419 C 35.600 352.823,35.780 353.264,36.000 353.400 C 36.220 353.536,36.403 353.952,36.407 354.324 C 36.411 354.696,36.861 355.424,37.407 355.942 C 38.385 356.870,38.400 356.871,38.400 356.042 C 38.400 355.579,38.220 355.200,38.000 355.200 C 37.780 355.200,37.600 354.750,37.600 354.200 C 37.600 353.578,37.373 353.200,37.000 353.200 C 36.627 353.200,36.400 352.822,36.400 352.200 C 36.400 351.650,36.220 351.200,36.000 351.200 C 35.780 351.200,35.600 350.840,35.600 350.400 C 35.600 349.956,35.333 349.600,35.000 349.600 C 34.667 349.600,34.400 349.244,34.400 348.800 C 34.400 348.360,34.220 348.000,34.000 348.000 C 33.780 348.000,33.600 348.360,33.600 348.800 M38.400 357.800 C 38.400 358.130,38.670 358.400,39.000 358.400 C 39.338 358.400,39.600 358.758,39.600 359.220 C 39.600 359.671,40.230 360.688,41.000 361.481 C 42.145 362.660,42.400 362.783,42.400 362.156 C 42.400 361.735,41.950 361.052,41.400 360.639 C 40.850 360.226,40.400 359.553,40.400 359.144 C 40.400 358.735,40.220 358.400,40.000 358.400 C 39.780 358.400,39.600 358.130,39.600 357.800 C 39.600 357.470,39.330 357.200,39.000 357.200 C 38.670 357.200,38.400 357.470,38.400 357.800 M42.400 363.757 C 42.400 364.064,42.670 364.418,43.000 364.545 C 43.330 364.671,43.600 365.058,43.600 365.405 C 43.600 365.751,44.050 366.520,44.600 367.113 C 45.150 367.707,45.600 368.419,45.600 368.696 C 45.600 368.973,45.780 369.200,46.000 369.200 C 46.220 369.200,46.400 369.470,46.400 369.800 C 46.400 370.130,46.670 370.400,47.000 370.400 C 47.330 370.400,47.600 370.130,47.600 369.800 C 47.600 369.470,47.330 369.200,47.000 369.200 C 46.670 369.200,46.400 368.859,46.400 368.442 C 46.400 368.025,45.953 367.260,45.407 366.742 C 44.861 366.224,44.411 365.485,44.407 365.100 C 44.403 364.715,44.220 364.400,44.000 364.400 C 43.780 364.400,43.600 364.130,43.600 363.800 C 43.600 363.470,43.330 363.200,43.000 363.200 C 42.670 363.200,42.400 363.451,42.400 363.757 M47.490 371.500 C 47.636 371.885,47.945 372.405,48.178 372.657 C 48.410 372.908,49.230 373.872,50.000 374.800 C 50.770 375.728,51.625 376.724,51.900 377.015 C 52.175 377.305,52.400 377.736,52.400 377.971 C 52.400 378.207,52.670 378.400,53.000 378.400 C 53.720 378.400,53.818 377.207,53.100 377.185 C 52.617 377.170,50.400 374.300,50.400 373.690 C 50.400 373.525,49.950 373.052,49.400 372.639 C 48.850 372.226,48.400 371.643,48.400 371.344 C 48.400 371.045,48.136 370.800,47.813 370.800 C 47.419 370.800,47.312 371.031,47.490 371.500 M53.465 378.668 C 53.099 379.035,54.235 380.718,55.965 382.373 C 56.754 383.128,57.355 383.893,57.300 384.073 C 57.245 384.253,57.470 384.400,57.800 384.400 C 58.711 384.400,58.522 383.660,57.297 382.435 C 56.690 381.829,55.745 380.674,55.197 379.869 C 54.176 378.370,53.932 378.201,53.465 378.668 M65.038 392.065 C 68.050 395.482,72.028 399.301,72.288 399.024 C 72.459 398.841,72.375 398.610,72.100 398.512 C 71.825 398.414,71.600 398.078,71.600 397.767 C 71.600 397.455,71.407 397.200,71.171 397.200 C 70.618 397.200,69.600 396.182,69.600 395.629 C 69.600 395.393,69.395 395.200,69.144 395.200 C 68.893 395.200,67.838 394.300,66.800 393.200 C 64.975 391.266,63.493 390.311,65.038 392.065 M75.200 401.900 C 75.200 402.212,75.414 402.395,75.675 402.308 C 76.400 402.067,76.503 401.333,75.811 401.333 C 75.475 401.333,75.200 401.588,75.200 401.900 " stroke="none" fill="#f53f65" fill-rule="evenodd"></path><path id="path1" d="M205.600 5.948 C 205.600 6.140,203.802 6.424,201.604 6.580 C 199.406 6.736,197.506 7.029,197.380 7.232 C 197.255 7.434,195.453 7.600,193.376 7.600 C 191.299 7.600,189.600 7.757,189.600 7.948 C 189.600 8.140,188.344 8.420,186.809 8.572 C 185.274 8.723,183.914 9.016,183.786 9.223 C 183.658 9.430,182.404 9.600,181.000 9.600 C 179.596 9.600,178.346 9.763,178.223 9.963 C 178.100 10.162,177.099 10.449,176.000 10.600 C 174.900 10.751,174.000 11.038,174.000 11.238 C 174.000 11.437,172.920 11.600,171.600 11.600 C 170.280 11.600,169.200 11.763,169.200 11.962 C 169.200 12.162,168.300 12.449,167.200 12.600 C 166.100 12.751,165.200 13.038,165.200 13.238 C 165.200 13.437,164.120 13.600,162.800 13.600 C 161.480 13.600,160.400 13.766,160.400 13.968 C 160.400 14.171,159.862 14.455,159.205 14.599 C 158.547 14.743,157.906 15.028,157.781 15.231 C 157.655 15.434,156.933 15.600,156.176 15.600 C 155.419 15.600,154.800 15.780,154.800 16.000 C 154.800 16.220,154.485 16.401,154.100 16.402 C 153.715 16.404,152.884 16.674,152.254 17.002 C 151.624 17.331,150.514 17.600,149.788 17.600 C 149.061 17.600,148.407 17.735,148.333 17.900 C 148.069 18.494,145.511 19.600,144.400 19.600 C 143.289 19.600,140.731 20.706,140.467 21.300 C 140.393 21.465,139.909 21.600,139.390 21.600 C 138.872 21.600,138.345 21.766,138.219 21.969 C 138.094 22.172,137.453 22.457,136.795 22.601 C 136.138 22.745,135.600 23.029,135.600 23.232 C 135.600 23.434,135.165 23.600,134.633 23.600 C 134.102 23.600,133.607 23.735,133.533 23.900 C 133.288 24.453,130.746 25.600,129.768 25.600 C 129.235 25.600,128.800 25.760,128.800 25.957 C 128.800 26.153,128.350 26.426,127.800 26.564 C 127.250 26.702,126.800 26.992,126.800 27.208 C 126.800 27.423,126.440 27.600,126.000 27.600 C 125.560 27.600,125.200 27.777,125.200 27.992 C 125.200 28.208,124.750 28.498,124.200 28.636 C 123.650 28.774,123.200 29.047,123.200 29.243 C 123.200 29.440,122.750 29.600,122.200 29.600 C 121.650 29.600,121.200 29.780,121.200 30.000 C 121.200 30.220,120.834 30.400,120.387 30.400 C 119.941 30.400,119.471 30.670,119.345 31.000 C 119.218 31.330,118.684 31.600,118.157 31.600 C 117.631 31.600,117.199 31.735,117.197 31.900 C 117.194 32.302,114.881 33.600,114.168 33.600 C 113.855 33.600,113.600 33.760,113.600 33.957 C 113.600 34.153,113.150 34.426,112.600 34.564 C 112.050 34.702,111.600 34.992,111.600 35.208 C 111.600 35.423,111.330 35.600,111.000 35.600 C 110.670 35.600,110.400 35.759,110.400 35.953 C 110.400 36.148,110.085 36.412,109.700 36.542 C 108.998 36.777,107.871 37.452,106.931 38.200 C 106.654 38.420,106.197 38.780,105.914 39.000 C 105.631 39.220,104.725 39.756,103.900 40.191 C 103.075 40.626,102.400 41.121,102.400 41.291 C 102.400 41.461,102.156 41.600,101.858 41.600 C 101.561 41.600,100.876 42.005,100.337 42.500 C 99.798 42.995,98.896 43.642,98.333 43.938 C 97.770 44.235,96.842 44.910,96.272 45.438 C 95.702 45.967,95.047 46.400,94.817 46.400 C 94.588 46.400,94.400 46.670,94.400 47.000 C 94.400 47.330,94.085 47.606,93.700 47.613 C 92.835 47.628,91.600 48.529,91.600 49.144 C 91.600 49.395,91.407 49.600,91.171 49.600 C 90.936 49.600,90.492 49.825,90.185 50.100 C 88.862 51.287,88.409 51.600,88.017 51.600 C 87.788 51.600,87.600 51.780,87.600 52.000 C 87.600 52.220,87.330 52.400,87.000 52.400 C 86.670 52.400,86.400 52.670,86.400 53.000 C 86.400 53.330,86.142 53.600,85.827 53.600 C 85.511 53.600,84.329 54.500,83.200 55.600 C 82.071 56.700,81.070 57.600,80.976 57.600 C 80.882 57.600,79.708 58.680,78.368 60.000 C 77.027 61.320,75.854 62.400,75.762 62.400 C 75.216 62.400,70.860 66.692,69.267 68.800 C 68.685 69.570,67.172 71.231,65.904 72.490 C 64.637 73.750,63.600 74.965,63.600 75.190 C 63.600 75.416,63.407 75.600,63.171 75.600 C 62.618 75.600,61.600 76.618,61.600 77.171 C 61.600 77.407,61.364 77.600,61.075 77.600 C 60.786 77.600,60.302 78.230,60.000 79.000 C 59.698 79.770,59.214 80.400,58.925 80.400 C 58.636 80.400,58.400 80.593,58.400 80.829 C 58.400 81.382,57.382 82.400,56.829 82.400 C 56.593 82.400,56.394 82.715,56.387 83.100 C 56.372 83.965,55.471 85.200,54.856 85.200 C 54.605 85.200,54.400 85.470,54.400 85.800 C 54.400 86.130,54.220 86.400,54.000 86.400 C 53.780 86.400,53.600 86.593,53.600 86.829 C 53.600 87.064,53.375 87.508,53.100 87.815 C 52.064 88.970,51.600 89.572,51.600 89.763 C 51.600 89.870,51.150 90.444,50.600 91.038 C 50.050 91.631,49.600 92.431,49.600 92.816 C 49.600 93.200,49.330 93.618,49.000 93.745 C 48.670 93.871,48.400 94.251,48.400 94.587 C 48.400 94.924,48.220 95.200,48.000 95.200 C 47.780 95.200,47.600 95.470,47.600 95.800 C 47.600 96.130,47.330 96.400,47.000 96.400 C 46.627 96.400,46.400 96.778,46.400 97.400 C 46.400 97.950,46.220 98.400,46.000 98.400 C 45.780 98.400,45.600 98.593,45.600 98.829 C 45.600 99.064,45.375 99.508,45.100 99.815 C 43.931 101.118,43.600 101.587,43.600 101.940 C 43.600 102.146,43.330 102.418,43.000 102.545 C 42.670 102.671,42.400 103.141,42.400 103.587 C 42.400 104.034,42.220 104.400,42.000 104.400 C 41.780 104.400,41.600 104.760,41.600 105.200 C 41.600 105.644,41.333 106.000,41.000 106.000 C 40.665 106.000,40.400 106.356,40.400 106.805 C 40.400 107.646,39.755 108.983,38.900 109.913 C 38.625 110.212,38.400 110.714,38.400 111.029 C 38.400 111.343,38.220 111.600,38.000 111.600 C 37.780 111.600,37.600 111.941,37.600 112.357 C 37.600 112.774,37.330 113.218,37.000 113.345 C 36.670 113.471,36.400 113.941,36.400 114.387 C 36.400 114.834,36.220 115.200,36.000 115.200 C 35.780 115.200,35.600 115.650,35.600 116.200 C 35.600 116.822,35.373 117.200,35.000 117.200 C 34.667 117.200,34.400 117.556,34.400 118.000 C 34.400 118.440,34.220 118.800,34.000 118.800 C 33.780 118.800,33.600 119.231,33.600 119.757 C 33.600 120.284,33.330 120.818,33.000 120.945 C 32.670 121.071,32.400 121.631,32.400 122.187 C 32.400 122.744,32.220 123.200,32.000 123.200 C 31.780 123.200,31.600 123.650,31.600 124.200 C 31.600 124.822,31.373 125.200,31.000 125.200 C 30.631 125.200,30.400 125.575,30.400 126.176 C 30.400 126.713,30.220 127.264,30.000 127.400 C 29.780 127.536,29.600 128.067,29.600 128.581 C 29.600 129.094,29.330 129.618,29.000 129.745 C 28.670 129.871,28.400 130.330,28.400 130.764 C 28.400 131.198,28.220 131.664,28.000 131.800 C 27.780 131.936,27.600 132.377,27.600 132.781 C 27.600 133.184,27.330 133.618,27.000 133.745 C 26.649 133.879,26.400 134.479,26.400 135.187 C 26.400 135.854,26.220 136.400,26.000 136.400 C 25.780 136.400,25.600 136.921,25.600 137.557 C 25.600 138.217,25.342 138.813,25.000 138.945 C 24.649 139.079,24.400 139.679,24.400 140.387 C 24.400 141.054,24.220 141.600,24.000 141.600 C 23.780 141.600,23.600 142.153,23.600 142.829 C 23.600 143.504,23.330 144.327,23.000 144.657 C 22.670 144.987,22.400 145.694,22.400 146.229 C 22.400 146.763,22.220 147.200,22.000 147.200 C 21.780 147.200,21.600 147.721,21.600 148.357 C 21.600 149.017,21.342 149.613,21.000 149.745 C 20.604 149.897,20.400 150.523,20.400 151.587 C 20.400 152.474,20.220 153.200,20.000 153.200 C 19.780 153.200,19.600 153.843,19.600 154.629 C 19.600 155.414,19.330 156.327,19.000 156.657 C 18.670 156.987,18.400 157.964,18.400 158.829 C 18.400 159.693,18.220 160.400,18.000 160.400 C 17.780 160.400,17.600 161.210,17.600 162.200 C 17.600 163.373,17.426 164.000,17.100 164.000 C 16.787 164.001,16.554 164.712,16.478 165.900 C 16.411 166.945,16.186 167.971,15.978 168.180 C 15.770 168.389,15.600 169.229,15.600 170.047 C 15.600 170.864,15.395 171.602,15.145 171.685 C 14.882 171.773,14.607 173.137,14.493 174.918 C 14.384 176.613,14.138 178.000,13.947 178.000 C 13.756 178.000,13.600 179.003,13.600 180.229 C 13.600 181.676,13.390 182.667,13.000 183.057 C 12.582 183.475,12.400 184.498,12.400 186.429 C 12.400 188.010,12.228 189.200,12.000 189.200 C 11.762 189.200,11.600 190.722,11.600 192.967 C 11.600 195.550,11.449 196.784,11.118 196.894 C 10.786 197.005,10.587 198.668,10.479 202.227 C 10.393 205.072,10.160 207.571,9.961 207.780 C 9.763 207.989,9.600 212.422,9.600 217.631 C 9.600 225.354,9.483 227.381,8.969 228.613 C 8.349 230.097,8.462 238.306,9.134 240.600 C 9.263 241.040,9.428 245.358,9.500 250.195 C 9.573 255.099,9.801 259.161,10.015 259.375 C 10.227 259.587,10.400 261.781,10.400 264.251 C 10.400 267.710,10.538 268.881,11.000 269.343 C 11.440 269.783,11.600 270.857,11.600 273.371 C 11.600 275.257,11.756 276.800,11.947 276.800 C 12.138 276.800,12.384 278.187,12.493 279.882 C 12.607 281.663,12.882 283.027,13.145 283.115 C 13.426 283.209,13.600 284.322,13.600 286.033 C 13.600 287.611,13.772 288.800,14.000 288.800 C 14.226 288.800,14.400 289.938,14.400 291.413 C 14.400 293.366,14.551 294.083,15.000 294.255 C 15.420 294.417,15.600 295.072,15.600 296.443 C 15.600 297.519,15.780 298.400,16.000 298.400 C 16.220 298.400,16.400 299.396,16.400 300.613 C 16.400 302.210,16.567 302.889,17.000 303.055 C 17.420 303.217,17.600 303.872,17.600 305.243 C 17.600 306.319,17.780 307.200,18.000 307.200 C 18.220 307.200,18.400 308.016,18.400 309.013 C 18.400 310.255,18.589 310.898,19.000 311.055 C 19.370 311.197,19.600 311.805,19.600 312.643 C 19.600 313.389,19.780 314.000,20.000 314.000 C 20.220 314.000,20.400 314.636,20.400 315.413 C 20.400 316.299,20.623 316.911,21.000 317.055 C 21.370 317.197,21.600 317.805,21.600 318.643 C 21.600 319.389,21.780 320.000,22.000 320.000 C 22.220 320.000,22.400 320.720,22.400 321.600 C 22.400 322.756,22.567 323.200,23.000 323.200 C 23.397 323.200,23.600 323.597,23.600 324.376 C 23.600 325.023,23.780 325.664,24.000 325.800 C 24.220 325.936,24.400 326.492,24.400 327.036 C 24.400 327.580,24.670 328.129,25.000 328.255 C 25.330 328.382,25.600 328.916,25.600 329.443 C 25.600 329.969,25.780 330.400,26.000 330.400 C 26.220 330.400,26.400 331.030,26.400 331.800 C 26.400 332.778,26.581 333.200,27.000 333.200 C 27.373 333.200,27.600 333.578,27.600 334.200 C 27.600 334.750,27.780 335.200,28.000 335.200 C 28.220 335.200,28.400 335.740,28.400 336.400 C 28.400 337.200,28.600 337.600,29.000 337.600 C 29.400 337.600,29.600 338.000,29.600 338.800 C 29.600 339.460,29.780 340.000,30.000 340.000 C 30.220 340.000,30.400 340.347,30.400 340.771 C 30.400 341.196,30.670 341.813,31.000 342.143 C 31.330 342.473,31.600 343.026,31.600 343.371 C 31.600 343.717,31.760 344.000,31.957 344.000 C 32.153 344.000,32.426 344.450,32.564 345.000 C 32.702 345.550,32.992 346.000,33.208 346.000 C 33.423 346.000,33.600 346.450,33.600 347.000 C 33.600 347.550,33.780 348.000,34.000 348.000 C 34.220 348.000,34.400 348.360,34.400 348.800 C 34.400 349.244,34.667 349.600,35.000 349.600 C 35.333 349.600,35.600 349.956,35.600 350.400 C 35.600 350.840,35.780 351.200,36.000 351.200 C 36.220 351.200,36.400 351.650,36.400 352.200 C 36.400 352.822,36.627 353.200,37.000 353.200 C 37.373 353.200,37.600 353.578,37.600 354.200 C 37.600 354.750,37.780 355.200,38.000 355.200 C 38.220 355.200,38.400 355.650,38.400 356.200 C 38.400 356.822,38.627 357.200,39.000 357.200 C 39.330 357.200,39.600 357.470,39.600 357.800 C 39.600 358.130,39.780 358.400,40.000 358.400 C 40.220 358.400,40.400 358.735,40.400 359.144 C 40.400 359.553,40.850 360.226,41.400 360.639 C 41.951 361.053,42.400 361.796,42.400 362.295 C 42.400 362.833,42.643 363.200,43.000 363.200 C 43.330 363.200,43.600 363.470,43.600 363.800 C 43.600 364.130,43.780 364.400,44.000 364.400 C 44.220 364.400,44.403 364.715,44.407 365.100 C 44.411 365.485,44.861 366.224,45.407 366.742 C 45.953 367.260,46.400 368.025,46.400 368.442 C 46.400 368.873,46.679 369.200,47.047 369.200 C 47.496 369.200,47.630 369.444,47.484 370.000 C 47.348 370.520,47.472 370.800,47.837 370.800 C 48.147 370.800,48.400 371.045,48.400 371.344 C 48.400 371.643,48.850 372.226,49.400 372.639 C 49.950 373.052,50.400 373.525,50.400 373.690 C 50.400 374.332,52.630 377.170,53.147 377.185 C 53.487 377.194,53.617 377.491,53.492 377.970 C 53.368 378.442,53.466 378.674,53.745 378.570 C 53.995 378.476,54.649 379.059,55.197 379.866 C 55.745 380.672,56.690 381.829,57.297 382.435 C 57.904 383.042,58.400 383.834,58.400 384.196 C 58.400 384.558,59.030 385.448,59.800 386.174 C 60.570 386.900,61.200 387.698,61.200 387.947 C 61.200 388.196,61.393 388.400,61.629 388.400 C 62.182 388.400,63.200 389.418,63.200 389.971 C 63.200 390.207,63.400 390.400,63.644 390.400 C 63.888 390.400,65.128 391.480,66.400 392.800 C 67.672 394.120,68.912 395.200,69.156 395.200 C 69.400 395.200,69.600 395.393,69.600 395.629 C 69.600 396.182,70.618 397.200,71.171 397.200 C 71.407 397.200,71.600 397.387,71.600 397.616 C 71.600 398.339,74.750 401.246,75.603 401.310 C 76.089 401.347,76.340 401.580,76.222 401.886 C 76.114 402.169,76.304 402.400,76.646 402.400 C 76.987 402.400,77.879 403.030,78.626 403.800 C 79.374 404.570,80.138 405.200,80.323 405.200 C 80.509 405.200,81.083 405.650,81.600 406.200 C 82.117 406.750,82.696 407.200,82.887 407.200 C 83.078 407.200,83.722 407.661,84.317 408.224 C 84.913 408.787,86.567 410.002,87.993 410.924 C 89.420 411.846,92.840 414.118,95.593 415.973 C 100.968 419.595,114.915 427.505,119.439 429.497 C 120.958 430.166,124.450 431.708,127.200 432.925 C 134.056 435.959,134.758 436.237,140.000 438.000 C 142.530 438.851,146.220 440.124,148.200 440.829 C 151.763 442.098,156.568 443.457,161.600 444.617 C 163.030 444.947,165.010 445.471,166.000 445.782 C 166.990 446.093,170.770 446.913,174.400 447.604 C 178.030 448.296,182.710 449.207,184.800 449.631 C 186.890 450.054,191.041 450.580,194.025 450.799 C 197.009 451.019,201.419 451.478,203.825 451.819 C 211.004 452.838,241.426 452.732,249.619 451.660 C 253.019 451.216,257.510 450.670,259.600 450.447 C 266.507 449.712,281.134 446.947,284.600 445.721 C 285.480 445.410,287.391 444.903,288.846 444.595 C 294.407 443.416,310.737 437.703,317.444 434.590 C 319.565 433.605,321.447 432.800,321.627 432.800 C 322.756 432.800,339.337 424.194,345.800 420.254 C 351.915 416.525,363.061 408.747,364.196 407.416 C 364.418 407.156,366.082 405.728,367.893 404.242 C 369.705 402.757,371.557 401.021,372.010 400.385 L 372.834 399.229 372.981 309.715 C 373.062 260.482,373.251 214.305,373.401 207.100 L 373.675 194.000 290.837 194.000 L 208.000 194.000 208.000 240.848 L 208.000 287.696 222.100 287.391 C 247.466 286.842,265.225 286.787,268.700 287.246 L 272.000 287.683 271.987 316.541 C 271.974 346.276,271.948 346.800,270.456 346.800 C 270.205 346.800,270.000 346.980,270.000 347.200 C 270.000 347.420,269.662 347.600,269.249 347.600 C 268.836 347.600,268.274 347.870,268.000 348.200 C 267.726 348.530,267.164 348.800,266.751 348.800 C 266.338 348.800,266.000 348.980,266.000 349.200 C 266.000 349.420,265.565 349.600,265.033 349.600 C 264.502 349.600,264.003 349.792,263.925 350.026 C 263.847 350.260,263.022 350.554,262.091 350.678 C 261.161 350.803,260.400 351.062,260.400 351.253 C 260.400 351.444,259.875 351.600,259.233 351.600 C 258.592 351.600,258.007 351.777,257.933 351.994 C 257.860 352.210,256.540 352.410,255.000 352.438 C 253.348 352.469,251.954 352.703,251.600 353.009 C 251.234 353.327,249.286 353.630,246.600 353.788 C 238.344 354.274,221.193 353.813,220.600 353.088 C 220.351 352.785,218.771 352.552,216.426 352.475 C 214.350 352.406,212.337 352.181,211.952 351.975 C 211.568 351.769,210.330 351.600,209.203 351.600 C 208.075 351.600,207.249 351.445,207.366 351.255 C 207.483 351.065,206.568 350.805,205.333 350.678 C 204.097 350.550,202.896 350.256,202.663 350.023 C 202.430 349.790,201.556 349.600,200.720 349.600 C 199.884 349.600,199.200 349.443,199.200 349.251 C 199.200 349.059,198.263 348.812,197.117 348.702 C 195.971 348.592,194.966 348.299,194.884 348.051 C 194.801 347.803,194.208 347.600,193.567 347.600 C 192.900 347.600,192.400 347.386,192.399 347.100 C 192.399 346.814,191.850 346.580,191.117 346.553 C 190.412 346.528,189.768 346.303,189.684 346.053 C 189.601 345.804,189.008 345.600,188.367 345.600 C 187.725 345.600,187.200 345.420,187.200 345.200 C 187.200 344.980,186.874 344.800,186.476 344.800 C 186.079 344.800,185.404 344.536,184.976 344.213 C 184.549 343.890,183.885 343.620,183.500 343.613 C 183.115 343.606,182.800 343.420,182.800 343.200 C 182.800 342.980,182.369 342.800,181.843 342.800 C 181.316 342.800,180.782 342.530,180.655 342.200 C 180.529 341.870,180.059 341.600,179.613 341.600 C 179.166 341.600,178.800 341.423,178.800 341.208 C 178.800 340.992,178.350 340.702,177.800 340.564 C 177.250 340.426,176.800 340.153,176.800 339.957 C 176.800 339.760,176.440 339.600,176.000 339.600 C 175.560 339.600,175.200 339.441,175.200 339.247 C 175.200 339.052,174.885 338.788,174.500 338.658 C 173.805 338.425,172.384 337.591,172.000 337.192 C 171.890 337.077,171.350 336.764,170.800 336.494 C 163.626 332.984,150.487 319.195,144.934 309.351 C 141.942 304.046,134.800 288.748,134.800 287.645 C 134.800 287.404,134.376 285.900,133.857 284.304 C 130.015 272.476,127.621 259.043,126.747 244.400 C 126.145 234.315,126.604 213.014,127.569 206.275 C 127.985 203.374,128.447 199.740,128.597 198.200 C 128.747 196.660,129.304 193.715,129.835 191.656 C 130.366 189.597,130.800 187.447,130.800 186.879 C 130.800 184.709,136.054 168.145,137.803 164.800 C 138.091 164.250,139.274 161.844,140.432 159.454 C 141.591 157.064,142.920 154.544,143.386 153.854 C 143.852 153.164,144.844 151.520,145.591 150.200 C 146.339 148.880,147.681 146.832,148.575 145.649 C 149.469 144.466,150.464 143.116,150.788 142.649 C 155.414 135.966,168.517 123.402,174.548 119.863 C 175.357 119.388,177.680 117.985,179.710 116.745 C 187.851 111.769,201.825 106.622,209.400 105.810 C 210.720 105.668,213.330 105.258,215.200 104.898 C 223.761 103.249,244.951 104.442,256.200 107.206 C 268.901 110.327,284.649 119.132,300.365 131.900 C 302.599 133.715,304.624 135.200,304.866 135.200 C 305.463 135.200,308.029 132.487,311.400 128.291 C 312.940 126.374,314.619 124.309,315.131 123.703 C 315.643 123.096,317.530 120.800,319.325 118.600 C 321.120 116.400,324.819 111.900,327.545 108.600 C 330.271 105.300,334.161 100.530,336.191 97.999 C 338.221 95.469,343.103 89.500,347.041 84.734 C 350.978 79.969,355.550 74.391,357.200 72.338 C 358.850 70.285,361.145 67.598,362.300 66.367 C 364.782 63.720,365.172 60.400,363.000 60.400 C 362.585 60.400,361.600 59.295,361.600 58.829 C 361.600 58.593,361.417 58.400,361.193 58.400 C 360.968 58.400,359.712 57.320,358.400 56.000 C 357.088 54.680,355.915 53.600,355.794 53.600 C 355.672 53.600,355.073 53.105,354.462 52.500 C 352.946 51.001,351.247 49.600,350.943 49.600 C 350.805 49.600,350.275 49.150,349.765 48.600 C 349.255 48.050,348.641 47.600,348.400 47.600 C 348.159 47.600,347.545 47.150,347.035 46.600 C 346.525 46.050,345.947 45.600,345.750 45.600 C 345.553 45.600,344.907 45.150,344.313 44.600 C 343.720 44.050,343.113 43.600,342.963 43.600 C 342.814 43.600,342.307 43.185,341.837 42.678 C 341.367 42.171,340.660 41.632,340.266 41.481 C 339.872 41.329,339.661 41.024,339.798 40.803 C 339.935 40.581,339.677 40.400,339.224 40.400 C 338.771 40.400,338.400 40.220,338.400 40.000 C 338.400 39.780,337.950 39.600,337.400 39.600 C 336.778 39.600,336.400 39.373,336.400 39.000 C 336.400 38.670,336.130 38.400,335.800 38.400 C 335.470 38.400,335.200 38.220,335.200 38.000 C 335.200 37.780,334.917 37.600,334.571 37.600 C 334.226 37.600,333.692 37.375,333.385 37.100 C 332.050 35.902,331.607 35.600,331.188 35.600 C 330.943 35.600,330.492 35.375,330.185 35.100 C 328.850 33.902,328.407 33.600,327.988 33.600 C 327.743 33.600,327.292 33.375,326.985 33.100 C 325.608 31.865,325.197 31.600,324.660 31.600 C 324.344 31.600,323.982 31.330,323.855 31.000 C 323.729 30.670,323.349 30.400,323.013 30.400 C 322.676 30.400,322.400 30.220,322.400 30.000 C 322.400 29.780,321.950 29.600,321.400 29.600 C 320.850 29.600,320.400 29.423,320.400 29.208 C 320.400 28.992,319.950 28.702,319.400 28.564 C 318.850 28.426,318.400 28.153,318.400 27.957 C 318.400 27.760,318.027 27.600,317.571 27.600 C 317.116 27.600,316.492 27.375,316.185 27.100 C 314.762 25.823,314.379 25.600,313.617 25.600 C 313.168 25.600,312.800 25.440,312.800 25.243 C 312.800 25.047,312.350 24.774,311.800 24.636 C 311.250 24.498,310.800 24.208,310.800 23.992 C 310.800 23.777,310.526 23.600,310.192 23.600 C 309.858 23.600,308.871 23.150,308.000 22.600 C 307.129 22.050,306.052 21.600,305.608 21.600 C 305.164 21.600,304.800 21.462,304.800 21.294 C 304.800 20.945,301.210 19.600,300.280 19.600 C 299.943 19.600,299.607 19.465,299.533 19.300 C 299.315 18.810,296.795 17.600,295.991 17.600 C 295.582 17.600,295.145 17.434,295.019 17.231 C 294.894 17.028,294.253 16.743,293.595 16.599 C 292.938 16.455,292.400 16.171,292.400 15.968 C 292.400 15.766,291.680 15.600,290.800 15.600 C 289.920 15.600,289.200 15.436,289.200 15.235 C 289.200 15.034,288.480 14.749,287.600 14.600 C 286.720 14.451,286.000 14.166,286.000 13.965 C 286.000 13.764,285.205 13.600,284.233 13.600 C 283.262 13.600,282.407 13.465,282.333 13.300 C 282.102 12.780,278.155 11.600,276.646 11.600 C 275.851 11.600,275.200 11.433,275.200 11.229 C 275.200 11.025,274.208 10.734,272.995 10.582 C 271.782 10.430,270.691 10.148,270.571 9.953 C 270.451 9.759,269.283 9.600,267.976 9.600 C 266.669 9.600,265.600 9.433,265.600 9.229 C 265.600 9.025,264.608 8.734,263.395 8.582 C 262.182 8.430,261.091 8.148,260.971 7.953 C 260.851 7.759,258.873 7.600,256.576 7.600 C 254.279 7.600,252.400 7.447,252.400 7.260 C 252.400 7.074,250.687 6.808,248.593 6.671 C 246.499 6.533,244.441 6.236,244.019 6.010 C 243.066 5.500,205.600 5.440,205.600 5.948 " stroke="none" fill="#3cfbcb" fill-rule="evenodd"></path></g></svg>